%TF.GenerationSoftware,KiCad,Pcbnew,9.0.6*%
%TF.CreationDate,2025-12-15T09:48:03-08:00*%
%TF.ProjectId,AmeliasHackpad,416d656c-6961-4734-9861-636b7061642e,rev?*%
%TF.SameCoordinates,Original*%
%TF.FileFunction,Soldermask,Bot*%
%TF.FilePolarity,Negative*%
%FSLAX46Y46*%
G04 Gerber Fmt 4.6, Leading zero omitted, Abs format (unit mm)*
G04 Created by KiCad (PCBNEW 9.0.6) date 2025-12-15 09:48:03*
%MOMM*%
%LPD*%
G01*
G04 APERTURE LIST*
%ADD10C,1.700000*%
%ADD11C,4.000000*%
%ADD12C,2.200000*%
%ADD13R,2.000000X2.000000*%
%ADD14C,2.000000*%
%ADD15R,3.200000X2.000000*%
%ADD16C,1.524000*%
G04 APERTURE END LIST*
D10*
%TO.C,SW3*%
X167692500Y-80108750D03*
D11*
X162612500Y-80108750D03*
D10*
X157532500Y-80108750D03*
D12*
X160072500Y-85188750D03*
X166422500Y-82648750D03*
%TD*%
D10*
%TO.C,SW1*%
X167700000Y-99158750D03*
D11*
X162620000Y-99158750D03*
D10*
X157540000Y-99158750D03*
D12*
X160080000Y-104238750D03*
X166430000Y-101698750D03*
%TD*%
D10*
%TO.C,SW2*%
X148642500Y-99158750D03*
D11*
X143562500Y-99158750D03*
D10*
X138482500Y-99158750D03*
D12*
X141022500Y-104238750D03*
X147372500Y-101698750D03*
%TD*%
D13*
%TO.C,SW5*%
X191293750Y-104040000D03*
D14*
X191293750Y-99040000D03*
X191293750Y-101540000D03*
D15*
X183793750Y-107140000D03*
X183793750Y-95940000D03*
D14*
X176793750Y-99040000D03*
X176793750Y-104040000D03*
%TD*%
D16*
%TO.C,U1*%
X176680000Y-69088500D03*
X176680000Y-71628500D03*
X176680000Y-74168500D03*
X176680000Y-76708500D03*
X176680000Y-79248500D03*
X176680000Y-81788500D03*
X176680000Y-84328500D03*
X191920000Y-84328500D03*
X191920000Y-81788500D03*
X191920000Y-79248500D03*
X191920000Y-76708500D03*
X191920000Y-74168500D03*
X191920000Y-71628500D03*
X191920000Y-69088500D03*
%TD*%
D10*
%TO.C,SW4*%
X148642500Y-80108750D03*
D11*
X143562500Y-80108750D03*
D10*
X138482500Y-80108750D03*
D12*
X141022500Y-85188750D03*
X147372500Y-82648750D03*
%TD*%
M02*
