%TF.GenerationSoftware,KiCad,Pcbnew,9.0.6*%
%TF.CreationDate,2025-12-15T09:48:03-08:00*%
%TF.ProjectId,AmeliasHackpad,416d656c-6961-4734-9861-636b7061642e,rev?*%
%TF.SameCoordinates,Original*%
%TF.FileFunction,Legend,Bot*%
%TF.FilePolarity,Positive*%
%FSLAX46Y46*%
G04 Gerber Fmt 4.6, Leading zero omitted, Abs format (unit mm)*
G04 Created by KiCad (PCBNEW 9.0.6) date 2025-12-15 09:48:03*
%MOMM*%
%LPD*%
G01*
G04 APERTURE LIST*
%ADD10C,0.100000*%
%ADD11C,0.000000*%
G04 APERTURE END LIST*
D10*
X194611608Y-66743580D02*
X194524452Y-67739775D01*
X194565955Y-67265396D02*
X195135209Y-67315200D01*
X195180862Y-66793384D02*
X195093706Y-67789578D01*
X195655240Y-66834886D02*
X195568085Y-67831081D01*
X196121318Y-66971265D02*
X196172906Y-66927977D01*
X196172906Y-66927977D02*
X196129618Y-66876389D01*
X196129618Y-66876389D02*
X196078030Y-66919676D01*
X196078030Y-66919676D02*
X196121318Y-66971265D01*
X196121318Y-66971265D02*
X196129618Y-66876389D01*
X196096416Y-67255892D02*
X195999175Y-67820996D01*
X195999175Y-67820996D02*
X196042463Y-67872584D01*
X196042463Y-67872584D02*
X196094051Y-67829296D01*
X196094051Y-67829296D02*
X196096416Y-67255892D01*
X196096416Y-67255892D02*
X196042463Y-67872584D01*
D11*
%TO.C,G\u002A\u002A\u002A*%
G36*
X137234502Y-68128729D02*
G01*
X137231517Y-68217138D01*
X137236436Y-68306608D01*
X137314892Y-68396327D01*
X137418631Y-68468989D01*
X137275126Y-68468989D01*
X137215756Y-68471748D01*
X137139180Y-68504142D01*
X137099942Y-68592181D01*
X137068264Y-68715373D01*
X137041095Y-68603474D01*
X136994347Y-68516594D01*
X136881531Y-68467202D01*
X136881246Y-68467149D01*
X136791985Y-68447657D01*
X136783466Y-68424773D01*
X136848330Y-68378936D01*
X136918048Y-68309077D01*
X136920853Y-68208781D01*
X136909128Y-68155334D01*
X136921222Y-68126291D01*
X136988531Y-68161439D01*
X136993799Y-68164696D01*
X137076437Y-68197161D01*
X137137754Y-68165486D01*
X137195304Y-68119306D01*
X137234502Y-68128729D01*
G37*
G36*
X144069237Y-68153140D02*
G01*
X144146277Y-68179968D01*
X144256903Y-68153140D01*
X144298974Y-68132075D01*
X144333988Y-68133387D01*
X144318845Y-68203404D01*
X144316312Y-68211819D01*
X144318159Y-68302966D01*
X144393001Y-68385441D01*
X144499049Y-68466996D01*
X144358683Y-68467992D01*
X144342182Y-68468332D01*
X144237416Y-68493454D01*
X144185006Y-68569782D01*
X144151696Y-68670576D01*
X144131869Y-68569782D01*
X144124535Y-68541328D01*
X144076294Y-68483925D01*
X143969566Y-68467992D01*
X143827091Y-68466996D01*
X143933139Y-68385441D01*
X143941897Y-68378576D01*
X144010575Y-68296599D01*
X144007295Y-68203404D01*
X143994440Y-68158632D01*
X144002489Y-68124998D01*
X144069237Y-68153140D01*
G37*
G36*
X139370766Y-69043551D02*
G01*
X139471420Y-69109644D01*
X139534015Y-69206613D01*
X139541935Y-69318395D01*
X139478565Y-69428928D01*
X139388156Y-69481343D01*
X139259015Y-69499673D01*
X139136540Y-69476306D01*
X139057768Y-69412674D01*
X139021782Y-69321117D01*
X139022982Y-69284749D01*
X139150467Y-69284749D01*
X139181459Y-69372419D01*
X139250888Y-69409729D01*
X139331023Y-69379298D01*
X139392741Y-69299281D01*
X139398588Y-69208712D01*
X139386628Y-69187473D01*
X139312672Y-69145959D01*
X139222551Y-69152812D01*
X139161986Y-69208142D01*
X139150467Y-69284749D01*
X139022982Y-69284749D01*
X139026353Y-69182619D01*
X139112188Y-69074738D01*
X139121746Y-69068244D01*
X139248670Y-69024396D01*
X139370766Y-69043551D01*
G37*
G36*
X146494451Y-69046966D02*
G01*
X146585669Y-69137202D01*
X146619773Y-69264931D01*
X146580542Y-69412674D01*
X146579573Y-69414452D01*
X146496050Y-69484542D01*
X146374931Y-69503358D01*
X146250337Y-69472452D01*
X146156387Y-69393377D01*
X146136713Y-69355560D01*
X146124110Y-69268685D01*
X146242676Y-69268685D01*
X146285816Y-69356613D01*
X146307645Y-69375236D01*
X146396271Y-69400272D01*
X146465489Y-69358532D01*
X146484466Y-69264339D01*
X146460840Y-69201698D01*
X146375033Y-69149777D01*
X146342260Y-69148810D01*
X146266139Y-69188640D01*
X146242676Y-69268685D01*
X146124110Y-69268685D01*
X146118487Y-69229923D01*
X146152906Y-69111364D01*
X146232045Y-69037188D01*
X146362343Y-69011702D01*
X146494451Y-69046966D01*
G37*
G36*
X145432846Y-67319591D02*
G01*
X145529548Y-67421880D01*
X145566715Y-67570334D01*
X145566476Y-67584231D01*
X145522679Y-67742318D01*
X145413502Y-67848071D01*
X145253658Y-67886625D01*
X145215183Y-67884798D01*
X145066710Y-67835853D01*
X144967391Y-67736235D01*
X144925500Y-67607490D01*
X144929053Y-67587149D01*
X145066788Y-67587149D01*
X145092961Y-67678450D01*
X145177026Y-67734657D01*
X145304816Y-67733984D01*
X145330441Y-67725201D01*
X145404220Y-67653183D01*
X145417573Y-67549513D01*
X145363634Y-67447613D01*
X145334814Y-67423023D01*
X145235391Y-67399077D01*
X145129409Y-67464252D01*
X145112676Y-67482541D01*
X145066788Y-67587149D01*
X144929053Y-67587149D01*
X144949314Y-67471166D01*
X145047107Y-67348809D01*
X145149621Y-67291358D01*
X145298805Y-67272930D01*
X145432846Y-67319591D01*
G37*
G36*
X138308784Y-67310968D02*
G01*
X138388074Y-67360833D01*
X138454946Y-67451856D01*
X138473142Y-67591916D01*
X138438632Y-67743457D01*
X138338065Y-67848390D01*
X138185671Y-67886625D01*
X138159370Y-67886009D01*
X137993337Y-67845361D01*
X137885415Y-67748122D01*
X137847354Y-67604103D01*
X137852637Y-67533349D01*
X137994687Y-67533349D01*
X137999769Y-67627363D01*
X138053574Y-67707293D01*
X138138924Y-67748115D01*
X138238643Y-67724804D01*
X138313824Y-67644658D01*
X138328312Y-67541729D01*
X138268550Y-67452814D01*
X138214533Y-67417400D01*
X138160248Y-67393856D01*
X138127351Y-67405756D01*
X138051946Y-67452814D01*
X137994687Y-67533349D01*
X137852637Y-67533349D01*
X137855722Y-67492030D01*
X137901154Y-67390644D01*
X138003458Y-67312995D01*
X138052222Y-67288112D01*
X138174935Y-67264549D01*
X138308784Y-67310968D01*
G37*
G36*
X135012537Y-67001577D02*
G01*
X135020492Y-67061691D01*
X134989685Y-67180106D01*
X134918226Y-67363324D01*
X134804226Y-67617842D01*
X134724897Y-67795106D01*
X134659855Y-67954564D01*
X134620927Y-68067660D01*
X134614615Y-68117272D01*
X134661953Y-68136172D01*
X134780160Y-68169809D01*
X134950106Y-68212557D01*
X135153254Y-68259519D01*
X135384850Y-68314907D01*
X135594580Y-68376374D01*
X135716751Y-68427480D01*
X135752344Y-68466335D01*
X135702339Y-68491048D01*
X135567715Y-68499729D01*
X135349454Y-68490489D01*
X135048536Y-68461436D01*
X134495677Y-68397424D01*
X134469372Y-68556398D01*
X134468643Y-68560939D01*
X134455659Y-68689096D01*
X134446310Y-68867726D01*
X134442575Y-69059635D01*
X134438884Y-69206857D01*
X134420847Y-69398912D01*
X134390485Y-69537019D01*
X134350801Y-69609317D01*
X134304798Y-69603944D01*
X134285971Y-69546359D01*
X134266381Y-69417654D01*
X134248792Y-69237585D01*
X134235521Y-69025485D01*
X134224959Y-68818302D01*
X134213940Y-68636384D01*
X134204041Y-68505042D01*
X134196565Y-68443747D01*
X134183994Y-68431715D01*
X134106275Y-68420981D01*
X133953266Y-68428122D01*
X133718741Y-68453263D01*
X133516520Y-68477350D01*
X133288161Y-68500614D01*
X133129722Y-68509676D01*
X133030187Y-68504510D01*
X132978543Y-68485088D01*
X132965341Y-68454954D01*
X133060527Y-68454954D01*
X133080000Y-68464375D01*
X133142310Y-68464287D01*
X133258953Y-68454137D01*
X133441426Y-68433371D01*
X133701226Y-68401435D01*
X133706373Y-68400793D01*
X133913698Y-68375065D01*
X134085205Y-68354019D01*
X134203201Y-68339812D01*
X134249992Y-68334597D01*
X134252152Y-68339560D01*
X134258372Y-68406387D01*
X134263578Y-68534885D01*
X134266818Y-68704174D01*
X134267203Y-68731011D01*
X134273747Y-68908492D01*
X134285996Y-69091552D01*
X134301923Y-69261178D01*
X134319504Y-69398357D01*
X134336713Y-69484076D01*
X134351525Y-69499324D01*
X134351701Y-69498904D01*
X134358335Y-69444938D01*
X134368051Y-69320292D01*
X134379571Y-69143071D01*
X134391617Y-68931383D01*
X134392069Y-68922964D01*
X134405098Y-68712183D01*
X134419109Y-68536523D01*
X134432449Y-68414113D01*
X134443464Y-68363080D01*
X134488699Y-68359221D01*
X134605839Y-68365420D01*
X134775949Y-68380902D01*
X134980521Y-68404248D01*
X135009457Y-68407841D01*
X135256306Y-68437910D01*
X135427101Y-68456825D01*
X135533463Y-68465111D01*
X135587014Y-68463295D01*
X135599376Y-68451902D01*
X135582171Y-68431458D01*
X135543856Y-68414245D01*
X135431164Y-68380366D01*
X135266221Y-68338624D01*
X135069243Y-68294420D01*
X134917331Y-68261954D01*
X134739823Y-68223085D01*
X134608350Y-68193181D01*
X134543748Y-68176901D01*
X134533256Y-68151369D01*
X134556037Y-68053989D01*
X134622783Y-67882935D01*
X134734136Y-67636382D01*
X134749320Y-67604032D01*
X134839322Y-67410636D01*
X134912496Y-67250674D01*
X134961664Y-67139991D01*
X134979649Y-67094431D01*
X134978551Y-67084581D01*
X134949363Y-67092142D01*
X134880444Y-67179798D01*
X134771758Y-67347599D01*
X134623269Y-67595598D01*
X134618174Y-67604310D01*
X134512057Y-67783847D01*
X134423282Y-67930553D01*
X134361011Y-68029513D01*
X134334405Y-68065814D01*
X134333221Y-68065089D01*
X134301341Y-68019172D01*
X134234915Y-67912196D01*
X134142851Y-67758763D01*
X134034055Y-67573471D01*
X134019266Y-67548114D01*
X133910282Y-67365789D01*
X133817012Y-67217316D01*
X133748951Y-67117390D01*
X133715595Y-67080702D01*
X133716815Y-67106415D01*
X133748674Y-67197986D01*
X133807758Y-67340326D01*
X133887610Y-67517049D01*
X133891585Y-67525554D01*
X134002172Y-67763679D01*
X134078783Y-67933479D01*
X134126044Y-68047038D01*
X134148581Y-68116444D01*
X134151021Y-68153783D01*
X134137990Y-68171141D01*
X134095502Y-68184238D01*
X133980648Y-68212140D01*
X133813559Y-68249517D01*
X133613335Y-68291969D01*
X133439993Y-68329611D01*
X133264160Y-68372043D01*
X133136941Y-68407694D01*
X133078008Y-68431440D01*
X133072394Y-68436577D01*
X133060527Y-68454954D01*
X132965341Y-68454954D01*
X132963776Y-68451383D01*
X132964034Y-68436653D01*
X132971233Y-68408311D01*
X132998598Y-68384452D01*
X133059628Y-68360489D01*
X133167827Y-68331834D01*
X133336696Y-68293899D01*
X133579737Y-68242097D01*
X133766446Y-68200523D01*
X133931123Y-68159566D01*
X134042665Y-68126786D01*
X134083705Y-68106844D01*
X134066839Y-68059978D01*
X134018878Y-67948328D01*
X133947329Y-67789267D01*
X133859719Y-67599834D01*
X133776421Y-67417186D01*
X133703387Y-67247230D01*
X133653928Y-67120621D01*
X133635733Y-67056027D01*
X133651424Y-66992020D01*
X133702116Y-66998362D01*
X133785176Y-67080668D01*
X133897858Y-67236163D01*
X134037416Y-67462072D01*
X134043855Y-67473065D01*
X134151588Y-67650407D01*
X134244714Y-67792060D01*
X134313466Y-67883886D01*
X134348078Y-67911749D01*
X134363743Y-67894413D01*
X134419606Y-67812636D01*
X134501319Y-67681318D01*
X134597283Y-67518754D01*
X134648010Y-67431497D01*
X134772962Y-67225979D01*
X134866894Y-67089631D01*
X134936030Y-67014012D01*
X134986592Y-66990682D01*
X135012537Y-67001577D01*
G37*
G36*
X149616417Y-67001577D02*
G01*
X149624372Y-67061691D01*
X149593565Y-67180106D01*
X149522106Y-67363324D01*
X149408106Y-67617842D01*
X149328777Y-67795106D01*
X149263735Y-67954564D01*
X149224807Y-68067660D01*
X149218495Y-68117272D01*
X149265833Y-68136172D01*
X149384040Y-68169809D01*
X149553986Y-68212557D01*
X149757134Y-68259519D01*
X149988730Y-68314907D01*
X150198460Y-68376374D01*
X150320631Y-68427480D01*
X150356224Y-68466335D01*
X150306219Y-68491048D01*
X150171595Y-68499729D01*
X149953334Y-68490489D01*
X149652416Y-68461436D01*
X149099557Y-68397424D01*
X149073253Y-68556398D01*
X149072523Y-68560939D01*
X149059539Y-68689096D01*
X149050190Y-68867726D01*
X149046455Y-69059635D01*
X149042764Y-69206857D01*
X149024727Y-69398912D01*
X148994365Y-69537019D01*
X148954681Y-69609317D01*
X148908678Y-69603944D01*
X148889851Y-69546359D01*
X148870261Y-69417654D01*
X148852672Y-69237585D01*
X148839401Y-69025485D01*
X148828839Y-68818302D01*
X148817820Y-68636384D01*
X148807921Y-68505042D01*
X148800445Y-68443747D01*
X148787874Y-68431715D01*
X148710155Y-68420981D01*
X148557146Y-68428122D01*
X148322621Y-68453263D01*
X148120400Y-68477350D01*
X147892041Y-68500614D01*
X147733602Y-68509676D01*
X147634067Y-68504510D01*
X147582423Y-68485088D01*
X147569221Y-68454954D01*
X147664407Y-68454954D01*
X147683880Y-68464375D01*
X147746190Y-68464287D01*
X147862833Y-68454137D01*
X148045306Y-68433371D01*
X148305106Y-68401435D01*
X148310253Y-68400793D01*
X148517578Y-68375065D01*
X148689085Y-68354019D01*
X148807081Y-68339812D01*
X148853872Y-68334597D01*
X148856032Y-68339560D01*
X148862253Y-68406387D01*
X148867458Y-68534885D01*
X148870698Y-68704174D01*
X148871083Y-68731011D01*
X148877627Y-68908492D01*
X148889876Y-69091552D01*
X148905803Y-69261178D01*
X148923384Y-69398357D01*
X148940593Y-69484076D01*
X148955405Y-69499324D01*
X148955581Y-69498904D01*
X148962215Y-69444938D01*
X148971931Y-69320292D01*
X148983451Y-69143071D01*
X148995498Y-68931383D01*
X148995949Y-68922964D01*
X149008978Y-68712183D01*
X149022989Y-68536523D01*
X149036329Y-68414113D01*
X149047345Y-68363080D01*
X149092579Y-68359221D01*
X149209719Y-68365420D01*
X149379829Y-68380902D01*
X149584401Y-68404248D01*
X149613337Y-68407841D01*
X149860186Y-68437910D01*
X150030981Y-68456825D01*
X150137343Y-68465111D01*
X150190895Y-68463295D01*
X150203256Y-68451902D01*
X150186051Y-68431458D01*
X150147736Y-68414245D01*
X150035044Y-68380366D01*
X149870101Y-68338624D01*
X149673123Y-68294420D01*
X149521211Y-68261954D01*
X149343703Y-68223085D01*
X149212230Y-68193181D01*
X149147629Y-68176901D01*
X149137137Y-68151369D01*
X149159917Y-68053989D01*
X149226663Y-67882935D01*
X149338017Y-67636382D01*
X149353200Y-67604032D01*
X149443202Y-67410636D01*
X149516376Y-67250674D01*
X149565544Y-67139991D01*
X149583529Y-67094431D01*
X149582431Y-67084581D01*
X149553243Y-67092142D01*
X149484324Y-67179798D01*
X149375638Y-67347599D01*
X149227149Y-67595598D01*
X149222054Y-67604310D01*
X149115937Y-67783847D01*
X149027162Y-67930553D01*
X148964891Y-68029513D01*
X148938286Y-68065814D01*
X148937101Y-68065089D01*
X148905221Y-68019172D01*
X148838795Y-67912196D01*
X148746731Y-67758763D01*
X148637935Y-67573471D01*
X148623146Y-67548114D01*
X148514162Y-67365789D01*
X148420892Y-67217316D01*
X148352831Y-67117390D01*
X148319476Y-67080702D01*
X148320695Y-67106415D01*
X148352554Y-67197986D01*
X148411638Y-67340326D01*
X148491490Y-67517049D01*
X148495465Y-67525554D01*
X148606053Y-67763679D01*
X148682663Y-67933479D01*
X148729924Y-68047038D01*
X148752461Y-68116444D01*
X148754901Y-68153783D01*
X148741870Y-68171141D01*
X148699382Y-68184238D01*
X148584528Y-68212140D01*
X148417440Y-68249517D01*
X148217215Y-68291969D01*
X148043873Y-68329611D01*
X147868040Y-68372043D01*
X147740821Y-68407694D01*
X147681888Y-68431440D01*
X147676274Y-68436577D01*
X147664407Y-68454954D01*
X147569221Y-68454954D01*
X147567656Y-68451383D01*
X147567914Y-68436653D01*
X147575113Y-68408311D01*
X147602478Y-68384452D01*
X147663508Y-68360489D01*
X147771708Y-68331834D01*
X147940576Y-68293899D01*
X148183617Y-68242097D01*
X148370326Y-68200523D01*
X148535003Y-68159566D01*
X148646545Y-68126786D01*
X148687585Y-68106844D01*
X148670719Y-68059978D01*
X148622758Y-67948328D01*
X148551209Y-67789267D01*
X148463599Y-67599834D01*
X148380301Y-67417186D01*
X148307267Y-67247230D01*
X148257808Y-67120621D01*
X148239613Y-67056027D01*
X148255304Y-66992020D01*
X148305996Y-66998362D01*
X148389056Y-67080668D01*
X148501738Y-67236163D01*
X148641296Y-67462072D01*
X148647735Y-67473065D01*
X148755468Y-67650407D01*
X148848594Y-67792060D01*
X148917346Y-67883886D01*
X148951958Y-67911749D01*
X148967623Y-67894413D01*
X149023486Y-67812636D01*
X149105199Y-67681318D01*
X149201163Y-67518754D01*
X149251890Y-67431497D01*
X149376842Y-67225979D01*
X149470774Y-67089631D01*
X149539910Y-67014012D01*
X149590472Y-66990682D01*
X149616417Y-67001577D01*
G37*
G36*
X143371325Y-68368697D02*
G01*
X143364775Y-68417700D01*
X143312712Y-68500560D01*
X143307863Y-68506795D01*
X143233400Y-68650126D01*
X143244544Y-68785010D01*
X143342256Y-68925241D01*
X143365902Y-68950806D01*
X143426962Y-69029479D01*
X143440959Y-69071640D01*
X143418568Y-69074860D01*
X143329944Y-69060877D01*
X143201920Y-69027310D01*
X143100250Y-68999542D01*
X142907974Y-68965198D01*
X142761233Y-68964028D01*
X142670201Y-68993818D01*
X142645053Y-69052353D01*
X142695962Y-69137420D01*
X142717487Y-69171270D01*
X142681855Y-69180589D01*
X142572770Y-69165720D01*
X142548145Y-69161410D01*
X142402029Y-69133790D01*
X142286014Y-69108933D01*
X142249091Y-69100795D01*
X142203176Y-69104758D01*
X142193027Y-69154867D01*
X142208685Y-69272138D01*
X142213125Y-69300550D01*
X142223440Y-69403180D01*
X142207542Y-69442149D01*
X142159463Y-69437511D01*
X141972198Y-69384321D01*
X141789284Y-69345237D01*
X141628154Y-69333987D01*
X141454402Y-69348712D01*
X141233625Y-69387558D01*
X141191299Y-69395683D01*
X140896416Y-69437740D01*
X140679733Y-69438651D01*
X140539955Y-69398296D01*
X140475784Y-69316552D01*
X140472398Y-69284073D01*
X140497509Y-69212553D01*
X140547119Y-69212553D01*
X140549989Y-69272045D01*
X140604894Y-69339334D01*
X140668915Y-69391055D01*
X140734042Y-69402790D01*
X140758485Y-69342534D01*
X140763539Y-69311622D01*
X140803282Y-69275338D01*
X140824955Y-69284229D01*
X140848079Y-69346093D01*
X140848079Y-69346540D01*
X140852988Y-69375035D01*
X140874184Y-69391914D01*
X140921620Y-69395231D01*
X141005252Y-69383038D01*
X141135033Y-69353390D01*
X141320918Y-69304340D01*
X141467295Y-69263439D01*
X141721624Y-69263439D01*
X141916534Y-69317130D01*
X142021249Y-69343288D01*
X142111382Y-69350223D01*
X142141583Y-69315623D01*
X142125870Y-69233917D01*
X142105218Y-69178147D01*
X142071949Y-69151151D01*
X142004665Y-69161254D01*
X141878414Y-69205601D01*
X141721624Y-69263439D01*
X141467295Y-69263439D01*
X141572859Y-69233942D01*
X141900813Y-69140250D01*
X142108653Y-69081276D01*
X142216921Y-69051352D01*
X142438379Y-69051352D01*
X142441985Y-69079312D01*
X142505574Y-69096149D01*
X142558701Y-69086287D01*
X142572770Y-69051352D01*
X142563588Y-69038987D01*
X142505574Y-69006555D01*
X142493590Y-69008301D01*
X142438379Y-69051352D01*
X142216921Y-69051352D01*
X142346348Y-69015580D01*
X142547523Y-68961900D01*
X142695690Y-68924619D01*
X142774358Y-68908117D01*
X142785603Y-68906572D01*
X142868044Y-68867524D01*
X142898693Y-68775060D01*
X142960604Y-68775060D01*
X142984500Y-68876300D01*
X143057170Y-68934263D01*
X143119644Y-68949901D01*
X143213736Y-68961018D01*
X143237490Y-68931281D01*
X143199773Y-68855811D01*
X143196313Y-68850469D01*
X143154341Y-68743780D01*
X143177595Y-68625613D01*
X143190913Y-68589741D01*
X143211730Y-68507491D01*
X143181378Y-68492882D01*
X143089534Y-68535330D01*
X143049328Y-68563655D01*
X142983031Y-68660769D01*
X142960604Y-68775060D01*
X142898693Y-68775060D01*
X142900775Y-68768780D01*
X142915200Y-68642999D01*
X142654391Y-68671441D01*
X142557677Y-68678556D01*
X142341952Y-68678816D01*
X142147197Y-68662061D01*
X142131847Y-68659728D01*
X141955845Y-68639170D01*
X141806863Y-68640205D01*
X141647821Y-68665826D01*
X141441641Y-68719027D01*
X141328368Y-68756918D01*
X141235899Y-68803948D01*
X141206279Y-68841030D01*
X141245548Y-68858693D01*
X141359744Y-68847466D01*
X141396933Y-68841656D01*
X141536792Y-68836810D01*
X141663692Y-68853744D01*
X141752159Y-68887280D01*
X141776721Y-68932240D01*
X141765246Y-68948640D01*
X141689751Y-68999258D01*
X141571773Y-69050311D01*
X141475247Y-69080492D01*
X141374681Y-69091316D01*
X141296833Y-69062237D01*
X141232579Y-69034552D01*
X141148209Y-69031718D01*
X141103203Y-69032929D01*
X141028960Y-68986195D01*
X140998820Y-68954734D01*
X140998711Y-68954688D01*
X141301518Y-68954688D01*
X141325899Y-69009525D01*
X141388785Y-69029664D01*
X141486323Y-69021966D01*
X141587050Y-68994339D01*
X141660098Y-68955296D01*
X141674595Y-68913350D01*
X141646593Y-68892130D01*
X141552590Y-68874572D01*
X141437096Y-68882555D01*
X141341222Y-68915781D01*
X141301518Y-68954688D01*
X140998711Y-68954688D01*
X140921509Y-68922050D01*
X140825165Y-68954630D01*
X140692848Y-69055993D01*
X140603203Y-69138564D01*
X140547119Y-69212553D01*
X140497509Y-69212553D01*
X140511912Y-69171529D01*
X140613085Y-69047520D01*
X140759998Y-68928781D01*
X140936731Y-68832043D01*
X141015968Y-68792852D01*
X141159167Y-68698469D01*
X141193417Y-68665530D01*
X141311450Y-68665530D01*
X141338204Y-68692974D01*
X141351207Y-68691253D01*
X141385645Y-68648177D01*
X141385131Y-68638039D01*
X141365890Y-68603380D01*
X141358704Y-68605441D01*
X141318449Y-68648177D01*
X141311450Y-68665530D01*
X141193417Y-68665530D01*
X141259061Y-68602400D01*
X141268681Y-68589557D01*
X141355639Y-68493794D01*
X141411014Y-68474538D01*
X141430442Y-68533541D01*
X141433280Y-68561167D01*
X141464097Y-68618892D01*
X141481590Y-68624398D01*
X141574884Y-68621828D01*
X141710688Y-68599112D01*
X141837547Y-68568336D01*
X142090404Y-68568336D01*
X142137684Y-68598455D01*
X142263470Y-68624079D01*
X142328526Y-68631738D01*
X142446146Y-68633560D01*
X142509984Y-68616890D01*
X142511570Y-68601643D01*
X142457789Y-68566373D01*
X142346674Y-68531693D01*
X142260957Y-68514196D01*
X142156421Y-68508981D01*
X142100161Y-68538882D01*
X142090404Y-68568336D01*
X141837547Y-68568336D01*
X141858285Y-68563305D01*
X141986959Y-68521462D01*
X142065993Y-68480638D01*
X142109132Y-68450634D01*
X142185354Y-68438981D01*
X142304533Y-68469169D01*
X142320910Y-68474299D01*
X142461147Y-68501903D01*
X142578724Y-68501683D01*
X142585801Y-68500371D01*
X142660701Y-68499703D01*
X142666370Y-68541899D01*
X142665025Y-68584356D01*
X142726837Y-68597580D01*
X142860699Y-68560500D01*
X143065539Y-68473301D01*
X143202572Y-68413825D01*
X143313534Y-68374583D01*
X143368709Y-68366645D01*
X143371325Y-68368697D01*
G37*
%TD*%
M02*
