%TF.GenerationSoftware,KiCad,Pcbnew,9.0.6*%
%TF.CreationDate,2025-12-15T09:48:03-08:00*%
%TF.ProjectId,AmeliasHackpad,416d656c-6961-4734-9861-636b7061642e,rev?*%
%TF.SameCoordinates,Original*%
%TF.FileFunction,Legend,Top*%
%TF.FilePolarity,Positive*%
%FSLAX46Y46*%
G04 Gerber Fmt 4.6, Leading zero omitted, Abs format (unit mm)*
G04 Created by KiCad (PCBNEW 9.0.6) date 2025-12-15 09:48:03*
%MOMM*%
%LPD*%
G01*
G04 APERTURE LIST*
%ADD10C,0.150000*%
%ADD11C,0.000000*%
%ADD12C,0.120000*%
%ADD13C,0.127000*%
%ADD14C,0.100000*%
%ADD15C,0.504000*%
G04 APERTURE END LIST*
D10*
X161279167Y-88389950D02*
X161422024Y-88437569D01*
X161422024Y-88437569D02*
X161660119Y-88437569D01*
X161660119Y-88437569D02*
X161755357Y-88389950D01*
X161755357Y-88389950D02*
X161802976Y-88342330D01*
X161802976Y-88342330D02*
X161850595Y-88247092D01*
X161850595Y-88247092D02*
X161850595Y-88151854D01*
X161850595Y-88151854D02*
X161802976Y-88056616D01*
X161802976Y-88056616D02*
X161755357Y-88008997D01*
X161755357Y-88008997D02*
X161660119Y-87961378D01*
X161660119Y-87961378D02*
X161469643Y-87913759D01*
X161469643Y-87913759D02*
X161374405Y-87866140D01*
X161374405Y-87866140D02*
X161326786Y-87818521D01*
X161326786Y-87818521D02*
X161279167Y-87723283D01*
X161279167Y-87723283D02*
X161279167Y-87628045D01*
X161279167Y-87628045D02*
X161326786Y-87532807D01*
X161326786Y-87532807D02*
X161374405Y-87485188D01*
X161374405Y-87485188D02*
X161469643Y-87437569D01*
X161469643Y-87437569D02*
X161707738Y-87437569D01*
X161707738Y-87437569D02*
X161850595Y-87485188D01*
X162183929Y-87437569D02*
X162422024Y-88437569D01*
X162422024Y-88437569D02*
X162612500Y-87723283D01*
X162612500Y-87723283D02*
X162802976Y-88437569D01*
X162802976Y-88437569D02*
X163041072Y-87437569D01*
X163326786Y-87437569D02*
X163945833Y-87437569D01*
X163945833Y-87437569D02*
X163612500Y-87818521D01*
X163612500Y-87818521D02*
X163755357Y-87818521D01*
X163755357Y-87818521D02*
X163850595Y-87866140D01*
X163850595Y-87866140D02*
X163898214Y-87913759D01*
X163898214Y-87913759D02*
X163945833Y-88008997D01*
X163945833Y-88008997D02*
X163945833Y-88247092D01*
X163945833Y-88247092D02*
X163898214Y-88342330D01*
X163898214Y-88342330D02*
X163850595Y-88389950D01*
X163850595Y-88389950D02*
X163755357Y-88437569D01*
X163755357Y-88437569D02*
X163469643Y-88437569D01*
X163469643Y-88437569D02*
X163374405Y-88389950D01*
X163374405Y-88389950D02*
X163326786Y-88342330D01*
X161286667Y-107439950D02*
X161429524Y-107487569D01*
X161429524Y-107487569D02*
X161667619Y-107487569D01*
X161667619Y-107487569D02*
X161762857Y-107439950D01*
X161762857Y-107439950D02*
X161810476Y-107392330D01*
X161810476Y-107392330D02*
X161858095Y-107297092D01*
X161858095Y-107297092D02*
X161858095Y-107201854D01*
X161858095Y-107201854D02*
X161810476Y-107106616D01*
X161810476Y-107106616D02*
X161762857Y-107058997D01*
X161762857Y-107058997D02*
X161667619Y-107011378D01*
X161667619Y-107011378D02*
X161477143Y-106963759D01*
X161477143Y-106963759D02*
X161381905Y-106916140D01*
X161381905Y-106916140D02*
X161334286Y-106868521D01*
X161334286Y-106868521D02*
X161286667Y-106773283D01*
X161286667Y-106773283D02*
X161286667Y-106678045D01*
X161286667Y-106678045D02*
X161334286Y-106582807D01*
X161334286Y-106582807D02*
X161381905Y-106535188D01*
X161381905Y-106535188D02*
X161477143Y-106487569D01*
X161477143Y-106487569D02*
X161715238Y-106487569D01*
X161715238Y-106487569D02*
X161858095Y-106535188D01*
X162191429Y-106487569D02*
X162429524Y-107487569D01*
X162429524Y-107487569D02*
X162620000Y-106773283D01*
X162620000Y-106773283D02*
X162810476Y-107487569D01*
X162810476Y-107487569D02*
X163048572Y-106487569D01*
X163953333Y-107487569D02*
X163381905Y-107487569D01*
X163667619Y-107487569D02*
X163667619Y-106487569D01*
X163667619Y-106487569D02*
X163572381Y-106630426D01*
X163572381Y-106630426D02*
X163477143Y-106725664D01*
X163477143Y-106725664D02*
X163381905Y-106773283D01*
X176311905Y-94394819D02*
X176311905Y-93394819D01*
X176311905Y-93394819D02*
X176550000Y-93394819D01*
X176550000Y-93394819D02*
X176692857Y-93442438D01*
X176692857Y-93442438D02*
X176788095Y-93537676D01*
X176788095Y-93537676D02*
X176835714Y-93632914D01*
X176835714Y-93632914D02*
X176883333Y-93823390D01*
X176883333Y-93823390D02*
X176883333Y-93966247D01*
X176883333Y-93966247D02*
X176835714Y-94156723D01*
X176835714Y-94156723D02*
X176788095Y-94251961D01*
X176788095Y-94251961D02*
X176692857Y-94347200D01*
X176692857Y-94347200D02*
X176550000Y-94394819D01*
X176550000Y-94394819D02*
X176311905Y-94394819D01*
X177835714Y-94394819D02*
X177264286Y-94394819D01*
X177550000Y-94394819D02*
X177550000Y-93394819D01*
X177550000Y-93394819D02*
X177454762Y-93537676D01*
X177454762Y-93537676D02*
X177359524Y-93632914D01*
X177359524Y-93632914D02*
X177264286Y-93680533D01*
X180021428Y-91702704D02*
X180478571Y-91702704D01*
X180249999Y-91702704D02*
X180249999Y-92502704D01*
X180249999Y-92502704D02*
X180326190Y-92388419D01*
X180326190Y-92388419D02*
X180402380Y-92312228D01*
X180402380Y-92312228D02*
X180478571Y-92274133D01*
X142229167Y-107439950D02*
X142372024Y-107487569D01*
X142372024Y-107487569D02*
X142610119Y-107487569D01*
X142610119Y-107487569D02*
X142705357Y-107439950D01*
X142705357Y-107439950D02*
X142752976Y-107392330D01*
X142752976Y-107392330D02*
X142800595Y-107297092D01*
X142800595Y-107297092D02*
X142800595Y-107201854D01*
X142800595Y-107201854D02*
X142752976Y-107106616D01*
X142752976Y-107106616D02*
X142705357Y-107058997D01*
X142705357Y-107058997D02*
X142610119Y-107011378D01*
X142610119Y-107011378D02*
X142419643Y-106963759D01*
X142419643Y-106963759D02*
X142324405Y-106916140D01*
X142324405Y-106916140D02*
X142276786Y-106868521D01*
X142276786Y-106868521D02*
X142229167Y-106773283D01*
X142229167Y-106773283D02*
X142229167Y-106678045D01*
X142229167Y-106678045D02*
X142276786Y-106582807D01*
X142276786Y-106582807D02*
X142324405Y-106535188D01*
X142324405Y-106535188D02*
X142419643Y-106487569D01*
X142419643Y-106487569D02*
X142657738Y-106487569D01*
X142657738Y-106487569D02*
X142800595Y-106535188D01*
X143133929Y-106487569D02*
X143372024Y-107487569D01*
X143372024Y-107487569D02*
X143562500Y-106773283D01*
X143562500Y-106773283D02*
X143752976Y-107487569D01*
X143752976Y-107487569D02*
X143991072Y-106487569D01*
X144324405Y-106582807D02*
X144372024Y-106535188D01*
X144372024Y-106535188D02*
X144467262Y-106487569D01*
X144467262Y-106487569D02*
X144705357Y-106487569D01*
X144705357Y-106487569D02*
X144800595Y-106535188D01*
X144800595Y-106535188D02*
X144848214Y-106582807D01*
X144848214Y-106582807D02*
X144895833Y-106678045D01*
X144895833Y-106678045D02*
X144895833Y-106773283D01*
X144895833Y-106773283D02*
X144848214Y-106916140D01*
X144848214Y-106916140D02*
X144276786Y-107487569D01*
X144276786Y-107487569D02*
X144895833Y-107487569D01*
X187160417Y-109147200D02*
X187303274Y-109194819D01*
X187303274Y-109194819D02*
X187541369Y-109194819D01*
X187541369Y-109194819D02*
X187636607Y-109147200D01*
X187636607Y-109147200D02*
X187684226Y-109099580D01*
X187684226Y-109099580D02*
X187731845Y-109004342D01*
X187731845Y-109004342D02*
X187731845Y-108909104D01*
X187731845Y-108909104D02*
X187684226Y-108813866D01*
X187684226Y-108813866D02*
X187636607Y-108766247D01*
X187636607Y-108766247D02*
X187541369Y-108718628D01*
X187541369Y-108718628D02*
X187350893Y-108671009D01*
X187350893Y-108671009D02*
X187255655Y-108623390D01*
X187255655Y-108623390D02*
X187208036Y-108575771D01*
X187208036Y-108575771D02*
X187160417Y-108480533D01*
X187160417Y-108480533D02*
X187160417Y-108385295D01*
X187160417Y-108385295D02*
X187208036Y-108290057D01*
X187208036Y-108290057D02*
X187255655Y-108242438D01*
X187255655Y-108242438D02*
X187350893Y-108194819D01*
X187350893Y-108194819D02*
X187588988Y-108194819D01*
X187588988Y-108194819D02*
X187731845Y-108242438D01*
X188065179Y-108194819D02*
X188303274Y-109194819D01*
X188303274Y-109194819D02*
X188493750Y-108480533D01*
X188493750Y-108480533D02*
X188684226Y-109194819D01*
X188684226Y-109194819D02*
X188922322Y-108194819D01*
X189779464Y-108194819D02*
X189303274Y-108194819D01*
X189303274Y-108194819D02*
X189255655Y-108671009D01*
X189255655Y-108671009D02*
X189303274Y-108623390D01*
X189303274Y-108623390D02*
X189398512Y-108575771D01*
X189398512Y-108575771D02*
X189636607Y-108575771D01*
X189636607Y-108575771D02*
X189731845Y-108623390D01*
X189731845Y-108623390D02*
X189779464Y-108671009D01*
X189779464Y-108671009D02*
X189827083Y-108766247D01*
X189827083Y-108766247D02*
X189827083Y-109004342D01*
X189827083Y-109004342D02*
X189779464Y-109099580D01*
X189779464Y-109099580D02*
X189731845Y-109147200D01*
X189731845Y-109147200D02*
X189636607Y-109194819D01*
X189636607Y-109194819D02*
X189398512Y-109194819D01*
X189398512Y-109194819D02*
X189303274Y-109147200D01*
X189303274Y-109147200D02*
X189255655Y-109099580D01*
X190599405Y-94394819D02*
X190599405Y-93394819D01*
X190599405Y-93394819D02*
X190837500Y-93394819D01*
X190837500Y-93394819D02*
X190980357Y-93442438D01*
X190980357Y-93442438D02*
X191075595Y-93537676D01*
X191075595Y-93537676D02*
X191123214Y-93632914D01*
X191123214Y-93632914D02*
X191170833Y-93823390D01*
X191170833Y-93823390D02*
X191170833Y-93966247D01*
X191170833Y-93966247D02*
X191123214Y-94156723D01*
X191123214Y-94156723D02*
X191075595Y-94251961D01*
X191075595Y-94251961D02*
X190980357Y-94347200D01*
X190980357Y-94347200D02*
X190837500Y-94394819D01*
X190837500Y-94394819D02*
X190599405Y-94394819D01*
X191551786Y-93490057D02*
X191599405Y-93442438D01*
X191599405Y-93442438D02*
X191694643Y-93394819D01*
X191694643Y-93394819D02*
X191932738Y-93394819D01*
X191932738Y-93394819D02*
X192027976Y-93442438D01*
X192027976Y-93442438D02*
X192075595Y-93490057D01*
X192075595Y-93490057D02*
X192123214Y-93585295D01*
X192123214Y-93585295D02*
X192123214Y-93680533D01*
X192123214Y-93680533D02*
X192075595Y-93823390D01*
X192075595Y-93823390D02*
X191504167Y-94394819D01*
X191504167Y-94394819D02*
X192123214Y-94394819D01*
X194308928Y-91702704D02*
X194766071Y-91702704D01*
X194537499Y-91702704D02*
X194537499Y-92502704D01*
X194537499Y-92502704D02*
X194613690Y-92388419D01*
X194613690Y-92388419D02*
X194689880Y-92312228D01*
X194689880Y-92312228D02*
X194766071Y-92274133D01*
X142229167Y-88389950D02*
X142372024Y-88437569D01*
X142372024Y-88437569D02*
X142610119Y-88437569D01*
X142610119Y-88437569D02*
X142705357Y-88389950D01*
X142705357Y-88389950D02*
X142752976Y-88342330D01*
X142752976Y-88342330D02*
X142800595Y-88247092D01*
X142800595Y-88247092D02*
X142800595Y-88151854D01*
X142800595Y-88151854D02*
X142752976Y-88056616D01*
X142752976Y-88056616D02*
X142705357Y-88008997D01*
X142705357Y-88008997D02*
X142610119Y-87961378D01*
X142610119Y-87961378D02*
X142419643Y-87913759D01*
X142419643Y-87913759D02*
X142324405Y-87866140D01*
X142324405Y-87866140D02*
X142276786Y-87818521D01*
X142276786Y-87818521D02*
X142229167Y-87723283D01*
X142229167Y-87723283D02*
X142229167Y-87628045D01*
X142229167Y-87628045D02*
X142276786Y-87532807D01*
X142276786Y-87532807D02*
X142324405Y-87485188D01*
X142324405Y-87485188D02*
X142419643Y-87437569D01*
X142419643Y-87437569D02*
X142657738Y-87437569D01*
X142657738Y-87437569D02*
X142800595Y-87485188D01*
X143133929Y-87437569D02*
X143372024Y-88437569D01*
X143372024Y-88437569D02*
X143562500Y-87723283D01*
X143562500Y-87723283D02*
X143752976Y-88437569D01*
X143752976Y-88437569D02*
X143991072Y-87437569D01*
X144800595Y-87770902D02*
X144800595Y-88437569D01*
X144562500Y-87389950D02*
X144324405Y-88104235D01*
X144324405Y-88104235D02*
X144943452Y-88104235D01*
D11*
%TO.C,G\u002A\u002A\u002A*%
G36*
X185229055Y-109145039D02*
G01*
X185184336Y-109189757D01*
X185139618Y-109145039D01*
X185184336Y-109100321D01*
X185229055Y-109145039D01*
G37*
G36*
X193546660Y-109145039D02*
G01*
X193501942Y-109189757D01*
X193457224Y-109145039D01*
X193501942Y-109100321D01*
X193546660Y-109145039D01*
G37*
G36*
X186733657Y-110027410D02*
G01*
X186719665Y-110054311D01*
X186613525Y-110065015D01*
X186600416Y-110054311D01*
X186612693Y-110001141D01*
X186660041Y-109994687D01*
X186733657Y-110027410D01*
G37*
G36*
X195051263Y-110027410D02*
G01*
X195037271Y-110054311D01*
X194931130Y-110065015D01*
X194918022Y-110054311D01*
X194930299Y-110001141D01*
X194977646Y-109994687D01*
X195051263Y-110027410D01*
G37*
G36*
X184229669Y-109797968D02*
G01*
X184245252Y-109860532D01*
X184173661Y-109979104D01*
X184111097Y-109994687D01*
X183992525Y-109923096D01*
X183976942Y-109860532D01*
X184048533Y-109741960D01*
X184111097Y-109726377D01*
X184229669Y-109797968D01*
G37*
G36*
X186390705Y-108901207D02*
G01*
X186391731Y-108921448D01*
X186322976Y-109007447D01*
X186297016Y-109010884D01*
X186243601Y-108956092D01*
X186257576Y-108921448D01*
X186337944Y-108836126D01*
X186352291Y-108832011D01*
X186390705Y-108901207D01*
G37*
G36*
X192457838Y-109797968D02*
G01*
X192473421Y-109860532D01*
X192401830Y-109979104D01*
X192339266Y-109994687D01*
X192220694Y-109923096D01*
X192205111Y-109860532D01*
X192276702Y-109741960D01*
X192339266Y-109726377D01*
X192457838Y-109797968D01*
G37*
G36*
X194708311Y-108901207D02*
G01*
X194709336Y-108921448D01*
X194640582Y-109007447D01*
X194614621Y-109010884D01*
X194561207Y-108956092D01*
X194575181Y-108921448D01*
X194655550Y-108836126D01*
X194669896Y-108832011D01*
X194708311Y-108901207D01*
G37*
G36*
X185533339Y-110060474D02*
G01*
X185580524Y-110187599D01*
X185585432Y-110255544D01*
X185559017Y-110336537D01*
X185518354Y-110298766D01*
X185377775Y-110182226D01*
X185323013Y-110158666D01*
X185244720Y-110114665D01*
X185334870Y-110062657D01*
X185336629Y-110061981D01*
X185487466Y-110041184D01*
X185533339Y-110060474D01*
G37*
G36*
X186243301Y-109305157D02*
G01*
X186259158Y-109585619D01*
X186358771Y-109742995D01*
X186469620Y-109873150D01*
X186454198Y-109890532D01*
X186329634Y-109828347D01*
X186140309Y-109705430D01*
X186089599Y-109571203D01*
X186157060Y-109359779D01*
X186173114Y-109323912D01*
X186294945Y-109055602D01*
X186243301Y-109305157D01*
G37*
G36*
X193850945Y-110060474D02*
G01*
X193898130Y-110187599D01*
X193903037Y-110255544D01*
X193876623Y-110336537D01*
X193835960Y-110298766D01*
X193695381Y-110182226D01*
X193640619Y-110158666D01*
X193562326Y-110114665D01*
X193652476Y-110062657D01*
X193654234Y-110061981D01*
X193805072Y-110041184D01*
X193850945Y-110060474D01*
G37*
G36*
X194560906Y-109305157D02*
G01*
X194576763Y-109585619D01*
X194676377Y-109742995D01*
X194787226Y-109873150D01*
X194771803Y-109890532D01*
X194647240Y-109828347D01*
X194457915Y-109705430D01*
X194407204Y-109571203D01*
X194474665Y-109359779D01*
X194490720Y-109323912D01*
X194612550Y-109055602D01*
X194560906Y-109305157D01*
G37*
G36*
X185333390Y-109432183D02*
G01*
X185335188Y-109593362D01*
X185219610Y-109750723D01*
X185091572Y-109857007D01*
X184868578Y-110015431D01*
X184751002Y-110077080D01*
X184752579Y-110041908D01*
X184887042Y-109909869D01*
X184948062Y-109857479D01*
X185132090Y-109659990D01*
X185240189Y-109463926D01*
X185247428Y-109432655D01*
X185277441Y-109234476D01*
X185333390Y-109432183D01*
G37*
G36*
X193650995Y-109432183D02*
G01*
X193652793Y-109593362D01*
X193537216Y-109750723D01*
X193409178Y-109857007D01*
X193186184Y-110015431D01*
X193068608Y-110077080D01*
X193070184Y-110041908D01*
X193204648Y-109909869D01*
X193265668Y-109857479D01*
X193449696Y-109659990D01*
X193557794Y-109463926D01*
X193565033Y-109432655D01*
X193595047Y-109234476D01*
X193650995Y-109432183D01*
G37*
G36*
X185135668Y-108866457D02*
G01*
X185302099Y-108967913D01*
X185390687Y-109024415D01*
X185609173Y-109143026D01*
X185776066Y-109158535D01*
X185927307Y-109106253D01*
X186168139Y-108998700D01*
X185971462Y-109198985D01*
X185774784Y-109399271D01*
X185412483Y-109148196D01*
X185203630Y-108997467D01*
X185072707Y-108891448D01*
X185050181Y-108864566D01*
X185064934Y-108838222D01*
X185135668Y-108866457D01*
G37*
G36*
X193453274Y-108866457D02*
G01*
X193619704Y-108967913D01*
X193708293Y-109024415D01*
X193926778Y-109143026D01*
X194093671Y-109158535D01*
X194244913Y-109106253D01*
X194485745Y-108998700D01*
X194289067Y-109198985D01*
X194092390Y-109399271D01*
X193730088Y-109148196D01*
X193521235Y-108997467D01*
X193390313Y-108891448D01*
X193367787Y-108864566D01*
X193382540Y-108838222D01*
X193453274Y-108866457D01*
G37*
G36*
X183242091Y-107894827D02*
G01*
X183249269Y-107998164D01*
X183322357Y-108170854D01*
X183417963Y-108233740D01*
X183522463Y-108267713D01*
X183454852Y-108282780D01*
X183424521Y-108285016D01*
X183276830Y-108369141D01*
X183233663Y-108451905D01*
X183199691Y-108556405D01*
X183184623Y-108488794D01*
X183182387Y-108458463D01*
X183098263Y-108310772D01*
X183015498Y-108267606D01*
X182910698Y-108233637D01*
X182978070Y-108218625D01*
X183009278Y-108216329D01*
X183142061Y-108131274D01*
X183198331Y-108004722D01*
X183228559Y-107862990D01*
X183242091Y-107894827D01*
G37*
G36*
X186112653Y-110079380D02*
G01*
X186127691Y-110088655D01*
X186209746Y-110155282D01*
X186129730Y-110172049D01*
X186119029Y-110172191D01*
X186000511Y-110250457D01*
X185884165Y-110444857D01*
X185863121Y-110498115D01*
X185774406Y-110697456D01*
X185703476Y-110737358D01*
X185667650Y-110699347D01*
X185597478Y-110538286D01*
X185589540Y-110486588D01*
X185626009Y-110470689D01*
X185674931Y-110531307D01*
X185739968Y-110587526D01*
X185790414Y-110496583D01*
X185819268Y-110372931D01*
X185887867Y-110127464D01*
X185977201Y-110037412D01*
X186112653Y-110079380D01*
G37*
G36*
X191559697Y-107894827D02*
G01*
X191566875Y-107998164D01*
X191639962Y-108170854D01*
X191735569Y-108233740D01*
X191840069Y-108267713D01*
X191772458Y-108282780D01*
X191742127Y-108285016D01*
X191594435Y-108369141D01*
X191551269Y-108451905D01*
X191517301Y-108556706D01*
X191502289Y-108489333D01*
X191499993Y-108458126D01*
X191414938Y-108325343D01*
X191288386Y-108269073D01*
X191146400Y-108238837D01*
X191178068Y-108225342D01*
X191282165Y-108218134D01*
X191461019Y-108131322D01*
X191515936Y-108004722D01*
X191546165Y-107862990D01*
X191559697Y-107894827D01*
G37*
G36*
X194430258Y-110079380D02*
G01*
X194445297Y-110088655D01*
X194527352Y-110155282D01*
X194447336Y-110172049D01*
X194436634Y-110172191D01*
X194318117Y-110250457D01*
X194201770Y-110444857D01*
X194180726Y-110498115D01*
X194092012Y-110697456D01*
X194021082Y-110737358D01*
X193985256Y-110699347D01*
X193915083Y-110538286D01*
X193907146Y-110486588D01*
X193943614Y-110470689D01*
X193992536Y-110531307D01*
X194057573Y-110587526D01*
X194108020Y-110496583D01*
X194136874Y-110372931D01*
X194205473Y-110127464D01*
X194294807Y-110037412D01*
X194430258Y-110079380D01*
G37*
G36*
X182523068Y-110893003D02*
G01*
X182452938Y-111027524D01*
X182275646Y-111141742D01*
X182096872Y-111121898D01*
X181980067Y-110985986D01*
X181972586Y-110939050D01*
X182098773Y-110939050D01*
X182153580Y-111054895D01*
X182267019Y-111040025D01*
X182322365Y-110978490D01*
X182339862Y-110845852D01*
X182268883Y-110752796D01*
X182182030Y-110758718D01*
X182105522Y-110884188D01*
X182098773Y-110939050D01*
X181972586Y-110939050D01*
X181964618Y-110889053D01*
X182031401Y-110705624D01*
X182189449Y-110629956D01*
X182375310Y-110680043D01*
X182452938Y-110750582D01*
X182499850Y-110845852D01*
X182523068Y-110893003D01*
G37*
G36*
X187898530Y-109939367D02*
G01*
X187912153Y-110021518D01*
X187853858Y-110182271D01*
X187801900Y-110248039D01*
X187751814Y-110340873D01*
X187857301Y-110401105D01*
X187890331Y-110410249D01*
X188024204Y-110479889D01*
X188037776Y-110545113D01*
X187922497Y-110589740D01*
X187815190Y-110573636D01*
X187679904Y-110570569D01*
X187643843Y-110704153D01*
X187607486Y-110852726D01*
X187554407Y-110889053D01*
X187482542Y-110813889D01*
X187464970Y-110704153D01*
X187429285Y-110570476D01*
X187293444Y-110573732D01*
X187286097Y-110576025D01*
X187139165Y-110580282D01*
X187116482Y-110505115D01*
X187233212Y-110412863D01*
X187245236Y-110408047D01*
X187334889Y-110328997D01*
X187289712Y-110180315D01*
X187248645Y-110014216D01*
X187308426Y-109943537D01*
X187419187Y-110003670D01*
X187459408Y-110059883D01*
X187541985Y-110168932D01*
X187619690Y-110130982D01*
X187675997Y-110061764D01*
X187817677Y-109923070D01*
X187898530Y-109939367D01*
G37*
G36*
X196216136Y-109939367D02*
G01*
X196229759Y-110021518D01*
X196171463Y-110182271D01*
X196119506Y-110248039D01*
X196069420Y-110340873D01*
X196174906Y-110401105D01*
X196207936Y-110410249D01*
X196341809Y-110479889D01*
X196355381Y-110545113D01*
X196240103Y-110589740D01*
X196132796Y-110573636D01*
X195997509Y-110570569D01*
X195961449Y-110704153D01*
X195925092Y-110852726D01*
X195872012Y-110889053D01*
X195800147Y-110813889D01*
X195782576Y-110704153D01*
X195746890Y-110570476D01*
X195611050Y-110573732D01*
X195603703Y-110576025D01*
X195456771Y-110580282D01*
X195434088Y-110505115D01*
X195550818Y-110412863D01*
X195562841Y-110408047D01*
X195652494Y-110328997D01*
X195607318Y-110180315D01*
X195566250Y-110014216D01*
X195626031Y-109943537D01*
X195736793Y-110003670D01*
X195777013Y-110059883D01*
X195859591Y-110168932D01*
X195937296Y-110130982D01*
X195993602Y-110061764D01*
X196135283Y-109923070D01*
X196216136Y-109939367D01*
G37*
G36*
X190985229Y-110128842D02*
G01*
X190507919Y-110173560D01*
X190030609Y-110218278D01*
X189841070Y-110727644D01*
X189651531Y-111237010D01*
X189468888Y-110727644D01*
X189286244Y-110218278D01*
X188806675Y-110173560D01*
X188327106Y-110128842D01*
X188411317Y-110070703D01*
X188673089Y-110070703D01*
X189023037Y-110099772D01*
X189262637Y-110140147D01*
X189392364Y-110241135D01*
X189469857Y-110418171D01*
X189575663Y-110642852D01*
X189682154Y-110688667D01*
X189788453Y-110555615D01*
X189842551Y-110418171D01*
X189936132Y-110220764D01*
X190085192Y-110123755D01*
X190289734Y-110084124D01*
X190639970Y-110039405D01*
X190343621Y-109828038D01*
X190143032Y-109648308D01*
X190098894Y-109499051D01*
X190107818Y-109470292D01*
X190207903Y-109180403D01*
X190208305Y-109033121D01*
X190163778Y-109010884D01*
X190032078Y-109076370D01*
X190014211Y-109099840D01*
X189823211Y-109273802D01*
X189585013Y-109282028D01*
X189392706Y-109177592D01*
X189191367Y-109052940D01*
X189094807Y-109071033D01*
X189110209Y-109226851D01*
X189156531Y-109342653D01*
X189213997Y-109505857D01*
X189183019Y-109627439D01*
X189039120Y-109771177D01*
X188970190Y-109828222D01*
X188673089Y-110070703D01*
X188411317Y-110070703D01*
X188700968Y-109870728D01*
X188914792Y-109709297D01*
X189050097Y-109580602D01*
X189074829Y-109536300D01*
X189045198Y-109415429D01*
X188969184Y-109187690D01*
X188904565Y-109011886D01*
X188818786Y-108769534D01*
X188806554Y-108653990D01*
X188885586Y-108661563D01*
X189073599Y-108788560D01*
X189266573Y-108936456D01*
X189473879Y-109087720D01*
X189622499Y-109178288D01*
X189656167Y-109189757D01*
X189759128Y-109139296D01*
X189946112Y-109011666D01*
X190045762Y-108936456D01*
X190315632Y-108732462D01*
X190464796Y-108645451D01*
X190510973Y-108679112D01*
X190471879Y-108837139D01*
X190407770Y-109011886D01*
X190312083Y-109276995D01*
X190250315Y-109473625D01*
X190237505Y-109536300D01*
X190305144Y-109626644D01*
X190477982Y-109773590D01*
X190611367Y-109870728D01*
X190855685Y-110039405D01*
X190985229Y-110128842D01*
G37*
D12*
%TO.C,SW3*%
X155627500Y-73123750D02*
X169597500Y-73123750D01*
X155627500Y-87093750D02*
X155627500Y-73123750D01*
X169597500Y-73123750D02*
X169597500Y-87093750D01*
X169597500Y-87093750D02*
X155627500Y-87093750D01*
%TO.C,SW1*%
X155635000Y-92173750D02*
X169605000Y-92173750D01*
X155635000Y-106143750D02*
X155635000Y-92173750D01*
X169605000Y-92173750D02*
X169605000Y-106143750D01*
X169605000Y-106143750D02*
X155635000Y-106143750D01*
%TO.C,D1*%
X174250000Y-89790000D02*
X174250000Y-93190000D01*
X174250000Y-89790000D02*
X174850000Y-89190000D01*
X179850000Y-89190000D02*
X174850000Y-89190000D01*
X179850000Y-93190000D02*
X174250000Y-93190000D01*
X179850000Y-93190000D02*
X179850000Y-89190000D01*
%TO.C,SW2*%
X136577500Y-92173750D02*
X150547500Y-92173750D01*
X136577500Y-106143750D02*
X136577500Y-92173750D01*
X150547500Y-92173750D02*
X150547500Y-106143750D01*
X150547500Y-106143750D02*
X136577500Y-106143750D01*
%TO.C,SW5*%
X177693750Y-95640000D02*
X181793750Y-95640000D01*
X177693750Y-98040000D02*
X177693750Y-95640000D01*
X177693750Y-102840000D02*
X177693750Y-100240000D01*
X177693750Y-107440000D02*
X177693750Y-105040000D01*
X181793750Y-107440000D02*
X177693750Y-107440000D01*
X183793750Y-102040000D02*
X183793750Y-101040000D01*
X184293750Y-101540000D02*
X183293750Y-101540000D01*
X185793750Y-95640000D02*
X189893750Y-95640000D01*
X185793750Y-107440000D02*
X189893750Y-107440000D01*
X189893750Y-107440000D02*
X189893750Y-95640000D01*
X190993750Y-105640000D02*
X191293750Y-105340000D01*
X191293750Y-105340000D02*
X191593750Y-105640000D01*
X191593750Y-105640000D02*
X190993750Y-105640000D01*
X186793750Y-101540000D02*
G75*
G02*
X180793750Y-101540000I-3000000J0D01*
G01*
X180793750Y-101540000D02*
G75*
G02*
X186793750Y-101540000I3000000J0D01*
G01*
%TO.C,D2*%
X188537500Y-89790000D02*
X188537500Y-93190000D01*
X188537500Y-89790000D02*
X189137500Y-89190000D01*
X194137500Y-89190000D02*
X189137500Y-89190000D01*
X194137500Y-93190000D02*
X188537500Y-93190000D01*
X194137500Y-93190000D02*
X194137500Y-89190000D01*
D11*
%TO.C,G\u002A\u002A\u002A*%
G36*
X136309055Y-109285039D02*
G01*
X136264336Y-109329757D01*
X136219618Y-109285039D01*
X136264336Y-109240321D01*
X136309055Y-109285039D01*
G37*
G36*
X144626660Y-109285039D02*
G01*
X144581942Y-109329757D01*
X144537224Y-109285039D01*
X144581942Y-109240321D01*
X144626660Y-109285039D01*
G37*
G36*
X137813657Y-110167410D02*
G01*
X137799665Y-110194311D01*
X137693525Y-110205015D01*
X137680416Y-110194311D01*
X137692693Y-110141141D01*
X137740041Y-110134687D01*
X137813657Y-110167410D01*
G37*
G36*
X146131263Y-110167410D02*
G01*
X146117271Y-110194311D01*
X146011130Y-110205015D01*
X145998022Y-110194311D01*
X146010299Y-110141141D01*
X146057646Y-110134687D01*
X146131263Y-110167410D01*
G37*
G36*
X135309669Y-109937968D02*
G01*
X135325252Y-110000532D01*
X135253661Y-110119104D01*
X135191097Y-110134687D01*
X135072525Y-110063096D01*
X135056942Y-110000532D01*
X135128533Y-109881960D01*
X135191097Y-109866377D01*
X135309669Y-109937968D01*
G37*
G36*
X137470705Y-109041207D02*
G01*
X137471731Y-109061448D01*
X137402976Y-109147447D01*
X137377016Y-109150884D01*
X137323601Y-109096092D01*
X137337576Y-109061448D01*
X137417944Y-108976126D01*
X137432291Y-108972011D01*
X137470705Y-109041207D01*
G37*
G36*
X143537838Y-109937968D02*
G01*
X143553421Y-110000532D01*
X143481830Y-110119104D01*
X143419266Y-110134687D01*
X143300694Y-110063096D01*
X143285111Y-110000532D01*
X143356702Y-109881960D01*
X143419266Y-109866377D01*
X143537838Y-109937968D01*
G37*
G36*
X145788311Y-109041207D02*
G01*
X145789336Y-109061448D01*
X145720582Y-109147447D01*
X145694621Y-109150884D01*
X145641207Y-109096092D01*
X145655181Y-109061448D01*
X145735550Y-108976126D01*
X145749896Y-108972011D01*
X145788311Y-109041207D01*
G37*
G36*
X136613339Y-110200474D02*
G01*
X136660524Y-110327599D01*
X136665432Y-110395544D01*
X136639017Y-110476537D01*
X136598354Y-110438766D01*
X136457775Y-110322226D01*
X136403013Y-110298666D01*
X136324720Y-110254665D01*
X136414870Y-110202657D01*
X136416629Y-110201981D01*
X136567466Y-110181184D01*
X136613339Y-110200474D01*
G37*
G36*
X137323301Y-109445157D02*
G01*
X137339158Y-109725619D01*
X137438771Y-109882995D01*
X137549620Y-110013150D01*
X137534198Y-110030532D01*
X137409634Y-109968347D01*
X137220309Y-109845430D01*
X137169599Y-109711203D01*
X137237060Y-109499779D01*
X137253114Y-109463912D01*
X137374945Y-109195602D01*
X137323301Y-109445157D01*
G37*
G36*
X144930945Y-110200474D02*
G01*
X144978130Y-110327599D01*
X144983037Y-110395544D01*
X144956623Y-110476537D01*
X144915960Y-110438766D01*
X144775381Y-110322226D01*
X144720619Y-110298666D01*
X144642326Y-110254665D01*
X144732476Y-110202657D01*
X144734234Y-110201981D01*
X144885072Y-110181184D01*
X144930945Y-110200474D01*
G37*
G36*
X145640906Y-109445157D02*
G01*
X145656763Y-109725619D01*
X145756377Y-109882995D01*
X145867226Y-110013150D01*
X145851803Y-110030532D01*
X145727240Y-109968347D01*
X145537915Y-109845430D01*
X145487204Y-109711203D01*
X145554665Y-109499779D01*
X145570720Y-109463912D01*
X145692550Y-109195602D01*
X145640906Y-109445157D01*
G37*
G36*
X136413390Y-109572183D02*
G01*
X136415188Y-109733362D01*
X136299610Y-109890723D01*
X136171572Y-109997007D01*
X135948578Y-110155431D01*
X135831002Y-110217080D01*
X135832579Y-110181908D01*
X135967042Y-110049869D01*
X136028062Y-109997479D01*
X136212090Y-109799990D01*
X136320189Y-109603926D01*
X136327428Y-109572655D01*
X136357441Y-109374476D01*
X136413390Y-109572183D01*
G37*
G36*
X144730995Y-109572183D02*
G01*
X144732793Y-109733362D01*
X144617216Y-109890723D01*
X144489178Y-109997007D01*
X144266184Y-110155431D01*
X144148608Y-110217080D01*
X144150184Y-110181908D01*
X144284648Y-110049869D01*
X144345668Y-109997479D01*
X144529696Y-109799990D01*
X144637794Y-109603926D01*
X144645033Y-109572655D01*
X144675047Y-109374476D01*
X144730995Y-109572183D01*
G37*
G36*
X136215668Y-109006457D02*
G01*
X136382099Y-109107913D01*
X136470687Y-109164415D01*
X136689173Y-109283026D01*
X136856066Y-109298535D01*
X137007307Y-109246253D01*
X137248139Y-109138700D01*
X137051462Y-109338985D01*
X136854784Y-109539271D01*
X136492483Y-109288196D01*
X136283630Y-109137467D01*
X136152707Y-109031448D01*
X136130181Y-109004566D01*
X136144934Y-108978222D01*
X136215668Y-109006457D01*
G37*
G36*
X144533274Y-109006457D02*
G01*
X144699704Y-109107913D01*
X144788293Y-109164415D01*
X145006778Y-109283026D01*
X145173671Y-109298535D01*
X145324913Y-109246253D01*
X145565745Y-109138700D01*
X145369067Y-109338985D01*
X145172390Y-109539271D01*
X144810088Y-109288196D01*
X144601235Y-109137467D01*
X144470313Y-109031448D01*
X144447787Y-109004566D01*
X144462540Y-108978222D01*
X144533274Y-109006457D01*
G37*
G36*
X134322091Y-108034827D02*
G01*
X134329269Y-108138164D01*
X134402357Y-108310854D01*
X134497963Y-108373740D01*
X134602463Y-108407713D01*
X134534852Y-108422780D01*
X134504521Y-108425016D01*
X134356830Y-108509141D01*
X134313663Y-108591905D01*
X134279691Y-108696405D01*
X134264623Y-108628794D01*
X134262387Y-108598463D01*
X134178263Y-108450772D01*
X134095498Y-108407606D01*
X133990698Y-108373637D01*
X134058070Y-108358625D01*
X134089278Y-108356329D01*
X134222061Y-108271274D01*
X134278331Y-108144722D01*
X134308559Y-108002990D01*
X134322091Y-108034827D01*
G37*
G36*
X137192653Y-110219380D02*
G01*
X137207691Y-110228655D01*
X137289746Y-110295282D01*
X137209730Y-110312049D01*
X137199029Y-110312191D01*
X137080511Y-110390457D01*
X136964165Y-110584857D01*
X136943121Y-110638115D01*
X136854406Y-110837456D01*
X136783476Y-110877358D01*
X136747650Y-110839347D01*
X136677478Y-110678286D01*
X136669540Y-110626588D01*
X136706009Y-110610689D01*
X136754931Y-110671307D01*
X136819968Y-110727526D01*
X136870414Y-110636583D01*
X136899268Y-110512931D01*
X136967867Y-110267464D01*
X137057201Y-110177412D01*
X137192653Y-110219380D01*
G37*
G36*
X142639697Y-108034827D02*
G01*
X142646875Y-108138164D01*
X142719962Y-108310854D01*
X142815569Y-108373740D01*
X142920069Y-108407713D01*
X142852458Y-108422780D01*
X142822127Y-108425016D01*
X142674435Y-108509141D01*
X142631269Y-108591905D01*
X142597301Y-108696706D01*
X142582289Y-108629333D01*
X142579993Y-108598126D01*
X142494938Y-108465343D01*
X142368386Y-108409073D01*
X142226400Y-108378837D01*
X142258068Y-108365342D01*
X142362165Y-108358134D01*
X142541019Y-108271322D01*
X142595936Y-108144722D01*
X142626165Y-108002990D01*
X142639697Y-108034827D01*
G37*
G36*
X145510258Y-110219380D02*
G01*
X145525297Y-110228655D01*
X145607352Y-110295282D01*
X145527336Y-110312049D01*
X145516634Y-110312191D01*
X145398117Y-110390457D01*
X145281770Y-110584857D01*
X145260726Y-110638115D01*
X145172012Y-110837456D01*
X145101082Y-110877358D01*
X145065256Y-110839347D01*
X144995083Y-110678286D01*
X144987146Y-110626588D01*
X145023614Y-110610689D01*
X145072536Y-110671307D01*
X145137573Y-110727526D01*
X145188020Y-110636583D01*
X145216874Y-110512931D01*
X145285473Y-110267464D01*
X145374807Y-110177412D01*
X145510258Y-110219380D01*
G37*
G36*
X133603068Y-111033003D02*
G01*
X133532938Y-111167524D01*
X133355646Y-111281742D01*
X133176872Y-111261898D01*
X133060067Y-111125986D01*
X133052586Y-111079050D01*
X133178773Y-111079050D01*
X133233580Y-111194895D01*
X133347019Y-111180025D01*
X133402365Y-111118490D01*
X133419862Y-110985852D01*
X133348883Y-110892796D01*
X133262030Y-110898718D01*
X133185522Y-111024188D01*
X133178773Y-111079050D01*
X133052586Y-111079050D01*
X133044618Y-111029053D01*
X133111401Y-110845624D01*
X133269449Y-110769956D01*
X133455310Y-110820043D01*
X133532938Y-110890582D01*
X133579850Y-110985852D01*
X133603068Y-111033003D01*
G37*
G36*
X138978530Y-110079367D02*
G01*
X138992153Y-110161518D01*
X138933858Y-110322271D01*
X138881900Y-110388039D01*
X138831814Y-110480873D01*
X138937301Y-110541105D01*
X138970331Y-110550249D01*
X139104204Y-110619889D01*
X139117776Y-110685113D01*
X139002497Y-110729740D01*
X138895190Y-110713636D01*
X138759904Y-110710569D01*
X138723843Y-110844153D01*
X138687486Y-110992726D01*
X138634407Y-111029053D01*
X138562542Y-110953889D01*
X138544970Y-110844153D01*
X138509285Y-110710476D01*
X138373444Y-110713732D01*
X138366097Y-110716025D01*
X138219165Y-110720282D01*
X138196482Y-110645115D01*
X138313212Y-110552863D01*
X138325236Y-110548047D01*
X138414889Y-110468997D01*
X138369712Y-110320315D01*
X138328645Y-110154216D01*
X138388426Y-110083537D01*
X138499187Y-110143670D01*
X138539408Y-110199883D01*
X138621985Y-110308932D01*
X138699690Y-110270982D01*
X138755997Y-110201764D01*
X138897677Y-110063070D01*
X138978530Y-110079367D01*
G37*
G36*
X147296136Y-110079367D02*
G01*
X147309759Y-110161518D01*
X147251463Y-110322271D01*
X147199506Y-110388039D01*
X147149420Y-110480873D01*
X147254906Y-110541105D01*
X147287936Y-110550249D01*
X147421809Y-110619889D01*
X147435381Y-110685113D01*
X147320103Y-110729740D01*
X147212796Y-110713636D01*
X147077509Y-110710569D01*
X147041449Y-110844153D01*
X147005092Y-110992726D01*
X146952012Y-111029053D01*
X146880147Y-110953889D01*
X146862576Y-110844153D01*
X146826890Y-110710476D01*
X146691050Y-110713732D01*
X146683703Y-110716025D01*
X146536771Y-110720282D01*
X146514088Y-110645115D01*
X146630818Y-110552863D01*
X146642841Y-110548047D01*
X146732494Y-110468997D01*
X146687318Y-110320315D01*
X146646250Y-110154216D01*
X146706031Y-110083537D01*
X146816793Y-110143670D01*
X146857013Y-110199883D01*
X146939591Y-110308932D01*
X147017296Y-110270982D01*
X147073602Y-110201764D01*
X147215283Y-110063070D01*
X147296136Y-110079367D01*
G37*
G36*
X142065229Y-110268842D02*
G01*
X141587919Y-110313560D01*
X141110609Y-110358278D01*
X140921070Y-110867644D01*
X140731531Y-111377010D01*
X140548888Y-110867644D01*
X140366244Y-110358278D01*
X139886675Y-110313560D01*
X139407106Y-110268842D01*
X139491317Y-110210703D01*
X139753089Y-110210703D01*
X140103037Y-110239772D01*
X140342637Y-110280147D01*
X140472364Y-110381135D01*
X140549857Y-110558171D01*
X140655663Y-110782852D01*
X140762154Y-110828667D01*
X140868453Y-110695615D01*
X140922551Y-110558171D01*
X141016132Y-110360764D01*
X141165192Y-110263755D01*
X141369734Y-110224124D01*
X141719970Y-110179405D01*
X141423621Y-109968038D01*
X141223032Y-109788308D01*
X141178894Y-109639051D01*
X141187818Y-109610292D01*
X141287903Y-109320403D01*
X141288305Y-109173121D01*
X141243778Y-109150884D01*
X141112078Y-109216370D01*
X141094211Y-109239840D01*
X140903211Y-109413802D01*
X140665013Y-109422028D01*
X140472706Y-109317592D01*
X140271367Y-109192940D01*
X140174807Y-109211033D01*
X140190209Y-109366851D01*
X140236531Y-109482653D01*
X140293997Y-109645857D01*
X140263019Y-109767439D01*
X140119120Y-109911177D01*
X140050190Y-109968222D01*
X139753089Y-110210703D01*
X139491317Y-110210703D01*
X139780968Y-110010728D01*
X139994792Y-109849297D01*
X140130097Y-109720602D01*
X140154829Y-109676300D01*
X140125198Y-109555429D01*
X140049184Y-109327690D01*
X139984565Y-109151886D01*
X139898786Y-108909534D01*
X139886554Y-108793990D01*
X139965586Y-108801563D01*
X140153599Y-108928560D01*
X140346573Y-109076456D01*
X140553879Y-109227720D01*
X140702499Y-109318288D01*
X140736167Y-109329757D01*
X140839128Y-109279296D01*
X141026112Y-109151666D01*
X141125762Y-109076456D01*
X141395632Y-108872462D01*
X141544796Y-108785451D01*
X141590973Y-108819112D01*
X141551879Y-108977139D01*
X141487770Y-109151886D01*
X141392083Y-109416995D01*
X141330315Y-109613625D01*
X141317505Y-109676300D01*
X141385144Y-109766644D01*
X141557982Y-109913590D01*
X141691367Y-110010728D01*
X141935685Y-110179405D01*
X142065229Y-110268842D01*
G37*
%TO.C,kibuzzard-693A5F78*%
G36*
X145387740Y-69791644D02*
G01*
X145162534Y-69791644D01*
X145274315Y-69227808D01*
X145275959Y-69227808D01*
X145387740Y-69791644D01*
G37*
G36*
X144538699Y-69028082D02*
G01*
X144572397Y-69109452D01*
X144538699Y-69190822D01*
X144457329Y-69224521D01*
X144375959Y-69190822D01*
X144342260Y-69109452D01*
X144375959Y-69028082D01*
X144457329Y-68994384D01*
X144538699Y-69028082D01*
G37*
G36*
X147033219Y-69562329D02*
G01*
X147059521Y-69638562D01*
X147069384Y-69753836D01*
X146776781Y-69753836D01*
X146790753Y-69635479D01*
X146819521Y-69559863D01*
X146865137Y-69519178D01*
X146929658Y-69505616D01*
X147033219Y-69562329D01*
G37*
G36*
X166730479Y-69028082D02*
G01*
X166764178Y-69109452D01*
X166730479Y-69190822D01*
X166649110Y-69224521D01*
X166567740Y-69190822D01*
X166534041Y-69109452D01*
X166567740Y-69028082D01*
X166649110Y-68994384D01*
X166730479Y-69028082D01*
G37*
G36*
X149513767Y-70113836D02*
G01*
X149405274Y-70135205D01*
X149285274Y-70096575D01*
X149242534Y-69987260D01*
X149255890Y-69912877D01*
X149295959Y-69860685D01*
X149365616Y-69829863D01*
X149467740Y-69819589D01*
X149513767Y-69819589D01*
X149513767Y-70113836D01*
G37*
G36*
X153623356Y-70113836D02*
G01*
X153514863Y-70135205D01*
X153394863Y-70096575D01*
X153352123Y-69987260D01*
X153365479Y-69912877D01*
X153405548Y-69860685D01*
X153475205Y-69829863D01*
X153577329Y-69819589D01*
X153623356Y-69819589D01*
X153623356Y-70113836D01*
G37*
G36*
X157732945Y-70113836D02*
G01*
X157624452Y-70135205D01*
X157504452Y-70096575D01*
X157461712Y-69987260D01*
X157475068Y-69912877D01*
X157515137Y-69860685D01*
X157584795Y-69829863D01*
X157686918Y-69819589D01*
X157732945Y-69819589D01*
X157732945Y-70113836D01*
G37*
G36*
X141697329Y-69490822D02*
G01*
X142075411Y-69490822D01*
X141769658Y-69712740D01*
X141886370Y-70072740D01*
X141580616Y-69849178D01*
X141274863Y-70072740D01*
X141391575Y-69712740D01*
X141085822Y-69490822D01*
X141463904Y-69490822D01*
X141580616Y-69132466D01*
X141697329Y-69490822D01*
G37*
G36*
X163889110Y-69490822D02*
G01*
X164267192Y-69490822D01*
X163961438Y-69712740D01*
X164078151Y-70072740D01*
X163772397Y-69849178D01*
X163466644Y-70072740D01*
X163583356Y-69712740D01*
X163277603Y-69490822D01*
X163655685Y-69490822D01*
X163772397Y-69132466D01*
X163889110Y-69490822D01*
G37*
G36*
X156841781Y-69528014D02*
G01*
X156895411Y-69580411D01*
X156926849Y-69675137D01*
X156937329Y-69819589D01*
X156927568Y-69955514D01*
X156898288Y-70052603D01*
X156849486Y-70110856D01*
X156781164Y-70130274D01*
X156657877Y-70092466D01*
X156657877Y-69528630D01*
X156764726Y-69510548D01*
X156841781Y-69528014D01*
G37*
G36*
X158493630Y-69524521D02*
G01*
X158553219Y-69566438D01*
X158553219Y-70113836D01*
X158446370Y-70135205D01*
X158370342Y-70117534D01*
X158316507Y-70064521D01*
X158284452Y-69967945D01*
X158273767Y-69819589D01*
X158282603Y-69675137D01*
X158309110Y-69580411D01*
X158353699Y-69528014D01*
X158416781Y-69510548D01*
X158493630Y-69524521D01*
G37*
G36*
X156038767Y-69526781D02*
G01*
X156088288Y-69575479D01*
X156116027Y-69668973D01*
X156125274Y-69819589D01*
X156116027Y-69970205D01*
X156088288Y-70063699D01*
X156038767Y-70112397D01*
X155964178Y-70128630D01*
X155889589Y-70112397D01*
X155840068Y-70063699D01*
X155812329Y-69970205D01*
X155803082Y-69819589D01*
X155812329Y-69668973D01*
X155840068Y-69575479D01*
X155889589Y-69526781D01*
X155964178Y-69510548D01*
X156038767Y-69526781D01*
G37*
G36*
X167788470Y-69690000D02*
G01*
X166947740Y-70951096D01*
X166879247Y-70951096D01*
X166649110Y-70951096D01*
X165881438Y-70951096D01*
X165135137Y-70951096D01*
X163295685Y-70951096D01*
X162593767Y-70951096D01*
X161847466Y-70951096D01*
X159961986Y-70951096D01*
X159140068Y-70951096D01*
X158454589Y-70951096D01*
X157624452Y-70951096D01*
X156657877Y-70951096D01*
X155964178Y-70951096D01*
X155071575Y-70951096D01*
X154392671Y-70951096D01*
X153514863Y-70951096D01*
X152462808Y-70951096D01*
X151022808Y-70951096D01*
X150279795Y-70951096D01*
X149405274Y-70951096D01*
X148714863Y-70951096D01*
X148049110Y-70951096D01*
X146967466Y-70951096D01*
X146479247Y-70951096D01*
X144888014Y-70951096D01*
X144457329Y-70951096D01*
X143689658Y-70951096D01*
X142943356Y-70951096D01*
X141103904Y-70951096D01*
X140401986Y-70951096D01*
X139655685Y-70951096D01*
X139170753Y-70951096D01*
X139102260Y-70951096D01*
X138404909Y-69905068D01*
X140153767Y-69905068D01*
X140153767Y-69998767D01*
X140291849Y-69998767D01*
X140291849Y-70199315D01*
X140401986Y-70199315D01*
X140401986Y-69998767D01*
X140540068Y-69998767D01*
X140540068Y-69905068D01*
X140401986Y-69905068D01*
X140401986Y-69706164D01*
X140291849Y-69706164D01*
X140291849Y-69905068D01*
X140153767Y-69905068D01*
X138404909Y-69905068D01*
X138261530Y-69690000D01*
X138500616Y-69331370D01*
X139170753Y-69331370D01*
X139427192Y-69385616D01*
X139251301Y-69579589D01*
X139394315Y-69683151D01*
X139525822Y-69456301D01*
X139655685Y-69683151D01*
X139798699Y-69579589D01*
X139636224Y-69400411D01*
X140808014Y-69400411D01*
X141284726Y-69747260D01*
X141103904Y-70309452D01*
X141580616Y-69960959D01*
X142057329Y-70309452D01*
X142037238Y-70246986D01*
X144888014Y-70246986D01*
X145072123Y-70246986D01*
X145134589Y-69931370D01*
X145415685Y-69931370D01*
X145478151Y-70246986D01*
X145668836Y-70246986D01*
X145477169Y-69438219D01*
X145723082Y-69438219D01*
X145723082Y-70246986D01*
X145895685Y-70246986D01*
X145895685Y-69533562D01*
X145961438Y-69510548D01*
X146009110Y-69527808D01*
X146022260Y-69589452D01*
X146022260Y-70246986D01*
X146186644Y-70246986D01*
X146186644Y-69533562D01*
X146254041Y-69510548D01*
X146300068Y-69526986D01*
X146313219Y-69589452D01*
X146313219Y-70246986D01*
X146479247Y-70246986D01*
X146479247Y-69819589D01*
X146589384Y-69819589D01*
X146599886Y-69955205D01*
X146631393Y-70066164D01*
X146683904Y-70152466D01*
X146757420Y-70214110D01*
X146851941Y-70251096D01*
X146967466Y-70263425D01*
X147082123Y-70253151D01*
X147202534Y-70222329D01*
X147202534Y-70085890D01*
X147089932Y-70119178D01*
X146988836Y-70130274D01*
X146900685Y-70116096D01*
X146836781Y-70073562D01*
X146795890Y-69997329D01*
X146776781Y-69882055D01*
X147243630Y-69882055D01*
X147246918Y-69816301D01*
X147238333Y-69675936D01*
X147212580Y-69563881D01*
X147169658Y-69480137D01*
X147109201Y-69422146D01*
X147030845Y-69387352D01*
X146934589Y-69375753D01*
X146829110Y-69388082D01*
X146742808Y-69425068D01*
X146675685Y-69486712D01*
X146627740Y-69573014D01*
X146598973Y-69683973D01*
X146589384Y-69819589D01*
X146479247Y-69819589D01*
X146479247Y-69605890D01*
X146467945Y-69491849D01*
X146434041Y-69422603D01*
X146368904Y-69387466D01*
X146263904Y-69375753D01*
X146178014Y-69386027D01*
X146101164Y-69416849D01*
X146038288Y-69386027D01*
X145954863Y-69375753D01*
X145831986Y-69391370D01*
X145723082Y-69438219D01*
X145477169Y-69438219D01*
X145416007Y-69180137D01*
X147424452Y-69180137D01*
X147644726Y-69180137D01*
X147644726Y-70246986D01*
X148049110Y-70246986D01*
X148049110Y-70113836D01*
X147828836Y-70113836D01*
X147828836Y-69392192D01*
X148312123Y-69392192D01*
X148312123Y-69525342D01*
X148530753Y-69525342D01*
X148530753Y-70246986D01*
X148714863Y-70246986D01*
X148714863Y-69987260D01*
X149068288Y-69987260D01*
X149090274Y-70103973D01*
X149156233Y-70191096D01*
X149222991Y-70231279D01*
X149306005Y-70255388D01*
X149405274Y-70263425D01*
X149505183Y-70257580D01*
X149601073Y-70240046D01*
X149692945Y-70210822D01*
X149692945Y-69701233D01*
X149687621Y-69614110D01*
X150731849Y-69614110D01*
X150748288Y-69708836D01*
X150797603Y-69782603D01*
X150885959Y-69839932D01*
X151019521Y-69885342D01*
X151128014Y-69934658D01*
X151157603Y-70016849D01*
X151119795Y-70103151D01*
X150994863Y-70130274D01*
X150871164Y-70114247D01*
X150740068Y-70066164D01*
X150740068Y-70210822D01*
X150827740Y-70240046D01*
X150921986Y-70257580D01*
X151022808Y-70263425D01*
X151156986Y-70247397D01*
X151157841Y-70246986D01*
X152301712Y-70246986D01*
X152462808Y-70246986D01*
X152490753Y-69227808D01*
X152495685Y-69227808D01*
X152589384Y-69967534D01*
X152745548Y-69967534D01*
X152847466Y-69227808D01*
X152849110Y-69227808D01*
X152873767Y-70246986D01*
X153049658Y-70246986D01*
X153036494Y-69987260D01*
X153177877Y-69987260D01*
X153199863Y-70103973D01*
X153265822Y-70191096D01*
X153332580Y-70231279D01*
X153415594Y-70255388D01*
X153514863Y-70263425D01*
X153614772Y-70257580D01*
X153710662Y-70240046D01*
X153802534Y-70210822D01*
X153802534Y-69819589D01*
X154003082Y-69819589D01*
X154014406Y-69954384D01*
X154048379Y-70065068D01*
X154105000Y-70151644D01*
X154182260Y-70213744D01*
X154278151Y-70251005D01*
X154392671Y-70263425D01*
X154495822Y-70253151D01*
X154594863Y-70222329D01*
X154594863Y-70087534D01*
X154502808Y-70123288D01*
X154414041Y-70135205D01*
X154319932Y-70115479D01*
X154248014Y-70056301D01*
X154202397Y-69957671D01*
X154187192Y-69819589D01*
X154200342Y-69685411D01*
X154239795Y-69588630D01*
X154302671Y-69530068D01*
X154386096Y-69510548D01*
X154430479Y-69515479D01*
X154430479Y-69704521D01*
X154603082Y-69704521D01*
X154603082Y-69461233D01*
X154890753Y-69461233D01*
X154890753Y-70246986D01*
X155071575Y-70246986D01*
X155070553Y-69819589D01*
X155618973Y-69819589D01*
X155628470Y-69960959D01*
X155656963Y-70073836D01*
X155704452Y-70158219D01*
X155771301Y-70216667D01*
X155857877Y-70251735D01*
X155964178Y-70263425D01*
X156070479Y-70251735D01*
X156157055Y-70216667D01*
X156223904Y-70158219D01*
X156271393Y-70073836D01*
X156299886Y-69960959D01*
X156309384Y-69819589D01*
X156299886Y-69678219D01*
X156271393Y-69565342D01*
X156223904Y-69480959D01*
X156163740Y-69428356D01*
X156477055Y-69428356D01*
X156477055Y-70608630D01*
X156657877Y-70608630D01*
X156657877Y-70230548D01*
X156727740Y-70255205D01*
X156802534Y-70263425D01*
X156898973Y-70251096D01*
X156977877Y-70214110D01*
X157039247Y-70152466D01*
X157083082Y-70066164D01*
X157101786Y-69987260D01*
X157287466Y-69987260D01*
X157309452Y-70103973D01*
X157375411Y-70191096D01*
X157442169Y-70231279D01*
X157525183Y-70255388D01*
X157624452Y-70263425D01*
X157724361Y-70257580D01*
X157820251Y-70240046D01*
X157912123Y-70210822D01*
X157912123Y-69819589D01*
X158092945Y-69819589D01*
X158102626Y-69965068D01*
X158131667Y-70079315D01*
X158180068Y-70162329D01*
X158249292Y-70218493D01*
X158340799Y-70252192D01*
X158454589Y-70263425D01*
X158556507Y-70257580D01*
X158649658Y-70240046D01*
X158734041Y-70210822D01*
X158734041Y-70016849D01*
X159140068Y-70016849D01*
X159140068Y-70246986D01*
X159361986Y-70246986D01*
X159361986Y-70016849D01*
X159961986Y-70016849D01*
X159961986Y-70246986D01*
X160183904Y-70246986D01*
X160183904Y-70016849D01*
X160159247Y-70016849D01*
X159961986Y-70016849D01*
X159361986Y-70016849D01*
X159337329Y-70016849D01*
X159140068Y-70016849D01*
X158734041Y-70016849D01*
X158734041Y-69905068D01*
X162345548Y-69905068D01*
X162345548Y-69998767D01*
X162483630Y-69998767D01*
X162483630Y-70199315D01*
X162593767Y-70199315D01*
X162593767Y-69998767D01*
X162731849Y-69998767D01*
X162731849Y-69905068D01*
X162593767Y-69905068D01*
X162593767Y-69706164D01*
X162483630Y-69706164D01*
X162483630Y-69905068D01*
X162345548Y-69905068D01*
X158734041Y-69905068D01*
X158734041Y-69046986D01*
X159140068Y-69046986D01*
X159164726Y-69877123D01*
X159337329Y-69877123D01*
X159361986Y-69046986D01*
X159961986Y-69046986D01*
X159986644Y-69877123D01*
X160159247Y-69877123D01*
X160175457Y-69331370D01*
X161362534Y-69331370D01*
X161618973Y-69385616D01*
X161443082Y-69579589D01*
X161586096Y-69683151D01*
X161717603Y-69456301D01*
X161847466Y-69683151D01*
X161990479Y-69579589D01*
X161828005Y-69400411D01*
X162999795Y-69400411D01*
X163476507Y-69747260D01*
X163295685Y-70309452D01*
X163772397Y-69960959D01*
X164249110Y-70309452D01*
X164119045Y-69905068D01*
X165633219Y-69905068D01*
X165633219Y-69998767D01*
X165771301Y-69998767D01*
X165771301Y-70199315D01*
X165881438Y-70199315D01*
X165881438Y-69998767D01*
X166019521Y-69998767D01*
X166019521Y-69905068D01*
X165881438Y-69905068D01*
X165881438Y-69706164D01*
X165771301Y-69706164D01*
X165771301Y-69905068D01*
X165633219Y-69905068D01*
X164119045Y-69905068D01*
X164068288Y-69747260D01*
X164545000Y-69400411D01*
X163954863Y-69400411D01*
X163932389Y-69331370D01*
X164650205Y-69331370D01*
X164906644Y-69385616D01*
X164730753Y-69579589D01*
X164873767Y-69683151D01*
X165005274Y-69456301D01*
X165135137Y-69683151D01*
X165278151Y-69579589D01*
X165102260Y-69385616D01*
X165358699Y-69331370D01*
X165304452Y-69163699D01*
X165064452Y-69270548D01*
X165082805Y-69109452D01*
X166418973Y-69109452D01*
X166435822Y-69197808D01*
X166486370Y-69272192D01*
X166560753Y-69322740D01*
X166649110Y-69339589D01*
X166737466Y-69322740D01*
X166811849Y-69272192D01*
X166862397Y-69197808D01*
X166879247Y-69109452D01*
X166862397Y-69021096D01*
X166811849Y-68946712D01*
X166737466Y-68896164D01*
X166649110Y-68879315D01*
X166560753Y-68896164D01*
X166486370Y-68946712D01*
X166435822Y-69021096D01*
X166418973Y-69109452D01*
X165082805Y-69109452D01*
X165094041Y-69010822D01*
X164916507Y-69010822D01*
X164944452Y-69270548D01*
X164704452Y-69163699D01*
X164650205Y-69331370D01*
X163932389Y-69331370D01*
X163772397Y-68839863D01*
X163589932Y-69400411D01*
X162999795Y-69400411D01*
X161828005Y-69400411D01*
X161814589Y-69385616D01*
X162071027Y-69331370D01*
X162016781Y-69163699D01*
X161776781Y-69270548D01*
X161806370Y-69010822D01*
X161628836Y-69010822D01*
X161656781Y-69270548D01*
X161416781Y-69163699D01*
X161362534Y-69331370D01*
X160175457Y-69331370D01*
X160183904Y-69046986D01*
X159961986Y-69046986D01*
X159361986Y-69046986D01*
X159140068Y-69046986D01*
X158734041Y-69046986D01*
X158734041Y-69014110D01*
X158553219Y-69014110D01*
X158553219Y-69411918D01*
X158477192Y-69384795D01*
X158397055Y-69375753D01*
X158302900Y-69387260D01*
X158226461Y-69421781D01*
X158167740Y-69479315D01*
X158126187Y-69563151D01*
X158101256Y-69676575D01*
X158092945Y-69819589D01*
X157912123Y-69819589D01*
X157912123Y-69701233D01*
X157905091Y-69586164D01*
X157883995Y-69499589D01*
X157848836Y-69441507D01*
X157756164Y-69392192D01*
X157604726Y-69375753D01*
X157516324Y-69381598D01*
X157424269Y-69399132D01*
X157328562Y-69428356D01*
X157328562Y-69569726D01*
X157423904Y-69536849D01*
X157512671Y-69517123D01*
X157594863Y-69510548D01*
X157707466Y-69540959D01*
X157732945Y-69668356D01*
X157732945Y-69696301D01*
X157686918Y-69696301D01*
X157564452Y-69704612D01*
X157464452Y-69729543D01*
X157386918Y-69771096D01*
X157312329Y-69862534D01*
X157287466Y-69987260D01*
X157101786Y-69987260D01*
X157109384Y-69955205D01*
X157118151Y-69819589D01*
X157108562Y-69675753D01*
X157079795Y-69562055D01*
X157031849Y-69478493D01*
X156962900Y-69421416D01*
X156871119Y-69387169D01*
X156756507Y-69375753D01*
X156658242Y-69381598D01*
X156565091Y-69399132D01*
X156477055Y-69428356D01*
X156163740Y-69428356D01*
X156157055Y-69422511D01*
X156070479Y-69387443D01*
X155964178Y-69375753D01*
X155857877Y-69387443D01*
X155771301Y-69422511D01*
X155704452Y-69480959D01*
X155656963Y-69565342D01*
X155628470Y-69678219D01*
X155618973Y-69819589D01*
X155070553Y-69819589D01*
X155069932Y-69559863D01*
X155186279Y-69533379D01*
X155307374Y-69517489D01*
X155433219Y-69512192D01*
X155433219Y-69375753D01*
X155321044Y-69379173D01*
X155210710Y-69389430D01*
X155102216Y-69406526D01*
X154995564Y-69430460D01*
X154890753Y-69461233D01*
X154603082Y-69461233D01*
X154603082Y-69408630D01*
X154501986Y-69383973D01*
X154389384Y-69375753D01*
X154286895Y-69384811D01*
X154200175Y-69411985D01*
X154129221Y-69457274D01*
X154074036Y-69520679D01*
X154034617Y-69602200D01*
X154010966Y-69701837D01*
X154003082Y-69819589D01*
X153802534Y-69819589D01*
X153802534Y-69701233D01*
X153795502Y-69586164D01*
X153774406Y-69499589D01*
X153739247Y-69441507D01*
X153646575Y-69392192D01*
X153495137Y-69375753D01*
X153406735Y-69381598D01*
X153314680Y-69399132D01*
X153218973Y-69428356D01*
X153218973Y-69569726D01*
X153314315Y-69536849D01*
X153403082Y-69517123D01*
X153485274Y-69510548D01*
X153597877Y-69540959D01*
X153623356Y-69668356D01*
X153623356Y-69696301D01*
X153577329Y-69696301D01*
X153454863Y-69704612D01*
X153354863Y-69729543D01*
X153277329Y-69771096D01*
X153202740Y-69862534D01*
X153177877Y-69987260D01*
X153036494Y-69987260D01*
X152988836Y-69046986D01*
X152781712Y-69046986D01*
X152683082Y-69811370D01*
X152679795Y-69811370D01*
X152579521Y-69046986D01*
X152364178Y-69046986D01*
X152301712Y-70246986D01*
X151157841Y-70246986D01*
X151257055Y-70199315D01*
X151319315Y-70121644D01*
X151340068Y-70016849D01*
X151324247Y-69911644D01*
X151276781Y-69836027D01*
X151185753Y-69780137D01*
X151039247Y-69734110D01*
X150941438Y-69688082D01*
X150912671Y-69614110D01*
X150948425Y-69533973D01*
X151055685Y-69507260D01*
X151180616Y-69517534D01*
X151312123Y-69548356D01*
X151312123Y-69411918D01*
X151226279Y-69391826D01*
X151135320Y-69379772D01*
X151039247Y-69375753D01*
X150905274Y-69391164D01*
X150809110Y-69437397D01*
X150751164Y-69512397D01*
X150731849Y-69614110D01*
X149687621Y-69614110D01*
X149685913Y-69586164D01*
X149664817Y-69499589D01*
X149629658Y-69441507D01*
X149536986Y-69392192D01*
X149385548Y-69375753D01*
X149297146Y-69381598D01*
X149205091Y-69399132D01*
X149109384Y-69428356D01*
X149109384Y-69569726D01*
X149204726Y-69536849D01*
X149293493Y-69517123D01*
X149375685Y-69510548D01*
X149488288Y-69540959D01*
X149513767Y-69668356D01*
X149513767Y-69696301D01*
X149467740Y-69696301D01*
X149345274Y-69704612D01*
X149245274Y-69729543D01*
X149167740Y-69771096D01*
X149093151Y-69862534D01*
X149068288Y-69987260D01*
X148714863Y-69987260D01*
X148714863Y-69392192D01*
X148497877Y-69392192D01*
X148312123Y-69392192D01*
X147828836Y-69392192D01*
X147828836Y-69203151D01*
X148497877Y-69203151D01*
X148714863Y-69203151D01*
X148714863Y-68997671D01*
X148497877Y-68997671D01*
X148497877Y-69203151D01*
X147828836Y-69203151D01*
X147828836Y-69046986D01*
X147424452Y-69046986D01*
X147424452Y-69180137D01*
X145416007Y-69180137D01*
X145384452Y-69046986D01*
X145170753Y-69046986D01*
X144888014Y-70246986D01*
X142037238Y-70246986D01*
X141927264Y-69905068D01*
X143441438Y-69905068D01*
X143441438Y-69998767D01*
X143579521Y-69998767D01*
X143579521Y-70199315D01*
X143689658Y-70199315D01*
X143689658Y-69998767D01*
X143827740Y-69998767D01*
X143827740Y-69905068D01*
X143689658Y-69905068D01*
X143689658Y-69706164D01*
X143579521Y-69706164D01*
X143579521Y-69905068D01*
X143441438Y-69905068D01*
X141927264Y-69905068D01*
X141876507Y-69747260D01*
X142353219Y-69400411D01*
X141763082Y-69400411D01*
X141740608Y-69331370D01*
X142458425Y-69331370D01*
X142714863Y-69385616D01*
X142538973Y-69579589D01*
X142681986Y-69683151D01*
X142813493Y-69456301D01*
X142943356Y-69683151D01*
X143086370Y-69579589D01*
X142910479Y-69385616D01*
X143166918Y-69331370D01*
X143112671Y-69163699D01*
X142872671Y-69270548D01*
X142891024Y-69109452D01*
X144227192Y-69109452D01*
X144244041Y-69197808D01*
X144294589Y-69272192D01*
X144368973Y-69322740D01*
X144457329Y-69339589D01*
X144545685Y-69322740D01*
X144620068Y-69272192D01*
X144670616Y-69197808D01*
X144687466Y-69109452D01*
X144670616Y-69021096D01*
X144632356Y-68964795D01*
X150090753Y-68964795D01*
X150140068Y-69457945D01*
X150279795Y-69457945D01*
X150329110Y-68964795D01*
X150090753Y-68964795D01*
X144632356Y-68964795D01*
X144620068Y-68946712D01*
X144545685Y-68896164D01*
X144457329Y-68879315D01*
X144368973Y-68896164D01*
X144294589Y-68946712D01*
X144244041Y-69021096D01*
X144227192Y-69109452D01*
X142891024Y-69109452D01*
X142902260Y-69010822D01*
X142724726Y-69010822D01*
X142752671Y-69270548D01*
X142512671Y-69163699D01*
X142458425Y-69331370D01*
X141740608Y-69331370D01*
X141580616Y-68839863D01*
X141398151Y-69400411D01*
X140808014Y-69400411D01*
X139636224Y-69400411D01*
X139622808Y-69385616D01*
X139879247Y-69331370D01*
X139825000Y-69163699D01*
X139585000Y-69270548D01*
X139614589Y-69010822D01*
X139437055Y-69010822D01*
X139465000Y-69270548D01*
X139225000Y-69163699D01*
X139170753Y-69331370D01*
X138500616Y-69331370D01*
X139102260Y-68428904D01*
X139170753Y-68428904D01*
X166879247Y-68428904D01*
X166947740Y-68428904D01*
X167788470Y-69690000D01*
G37*
D13*
%TO.C,U1*%
X175410000Y-85217500D02*
X175410000Y-68072500D01*
X177315000Y-87122500D02*
X191285000Y-87122500D01*
X179805000Y-66167500D02*
X179808728Y-65257228D01*
X180308728Y-64757500D02*
X188304000Y-64757500D01*
X188804000Y-65257500D02*
X188804000Y-66167500D01*
D14*
X191285000Y-66167500D02*
X177315000Y-66167500D01*
D13*
X191285000Y-66167500D02*
X177315000Y-66167500D01*
X193190000Y-85217500D02*
X193190000Y-68072500D01*
X175410000Y-68072500D02*
G75*
G02*
X177315000Y-66167500I1905001J-1D01*
G01*
X177315000Y-87122500D02*
G75*
G02*
X175410000Y-85217500I1J1905001D01*
G01*
X179808728Y-65257228D02*
G75*
G02*
X180308728Y-64757501I500018J-291D01*
G01*
X188304000Y-64757500D02*
G75*
G02*
X188804000Y-65257500I0J-500000D01*
G01*
X191285000Y-66167500D02*
G75*
G02*
X193190000Y-68072500I0J-1905000D01*
G01*
X193190000Y-85217500D02*
G75*
G02*
X191285000Y-87122500I-1905000J0D01*
G01*
D15*
X175602000Y-66408500D02*
G75*
G02*
X175098000Y-66408500I-252000J0D01*
G01*
X175098000Y-66408500D02*
G75*
G02*
X175602000Y-66408500I252000J0D01*
G01*
X176745000Y-67288500D02*
G75*
G02*
X176241000Y-67288500I-252000J0D01*
G01*
X176241000Y-67288500D02*
G75*
G02*
X176745000Y-67288500I252000J0D01*
G01*
D12*
%TO.C,SW4*%
X136577500Y-73123750D02*
X150547500Y-73123750D01*
X136577500Y-87093750D02*
X136577500Y-73123750D01*
X150547500Y-73123750D02*
X150547500Y-87093750D01*
X150547500Y-87093750D02*
X136577500Y-87093750D01*
%TD*%
M02*
