M48
; DRILL file {KiCad 9.0.6} date 2025-12-15T09:49:50-0800
; FORMAT={-:-/ absolute / metric / decimal}
; #@! TF.CreationDate,2025-12-15T09:49:50-08:00
; #@! TF.GenerationSoftware,Kicad,Pcbnew,9.0.6
; #@! TF.FileFunction,Plated,1,2,PTH
FMAT,2
METRIC
; #@! TA.AperFunction,Plated,PTH,ViaDrill
T1C0.300
; #@! TA.AperFunction,Plated,PTH,ComponentDrill
T2C0.889
; #@! TA.AperFunction,Plated,PTH,ComponentDrill
T3C1.000
; #@! TA.AperFunction,Plated,PTH,ComponentDrill
T4C1.500
%
G90
G05
T1
X172.62Y-84.65
X189.587Y-92.065
X194.947Y-103.837
X195.624Y-91.92
T2
X176.68Y-69.088
X176.68Y-71.629
X176.68Y-74.168
X176.68Y-76.709
X176.68Y-79.248
X176.68Y-81.788
X176.68Y-84.328
X191.92Y-69.088
X191.92Y-71.629
X191.92Y-74.168
X191.92Y-76.709
X191.92Y-79.248
X191.92Y-81.788
X191.92Y-84.328
T3
X176.794Y-99.04
X176.794Y-104.04
X191.294Y-99.04
X191.294Y-101.54
X191.294Y-104.04
T4
X141.022Y-85.189
X141.022Y-104.239
X147.373Y-82.649
X147.373Y-101.699
X160.072Y-85.189
X160.08Y-104.239
X166.422Y-82.649
X166.43Y-101.699
T4
G00X184.444Y-95.94
M15
G01X183.144Y-95.94
M16
G05
G00X184.444Y-107.14
M15
G01X183.144Y-107.14
M16
G05
M30
